<?xml version="1.0" encoding="UTF-8" standalone="no"?>
<!-- Generator: Adobe Illustrator 15.0.0, SVG Export Plug-In . SVG Version: 6.00 Build 0)  -->

<svg
   xmlns:dc="http://purl.org/dc/elements/1.1/"
   xmlns:cc="http://creativecommons.org/ns#"
   xmlns:rdf="http://www.w3.org/1999/02/22-rdf-syntax-ns#"
   xmlns:svg="http://www.w3.org/2000/svg"
   xmlns="http://www.w3.org/2000/svg"
   xmlns:xlink="http://www.w3.org/1999/xlink"
   xmlns:sodipodi="http://sodipodi.sourceforge.net/DTD/sodipodi-0.dtd"
   xmlns:inkscape="http://www.inkscape.org/namespaces/inkscape"
   version="1.1"
   id="Calque_1"
   x="0px"
   y="0px"
   width="116.71304"
   height="116.72195"
   viewBox="0 0 116.71304 116.72195"
   enable-background="new 0 0 414 268"
   xml:space="preserve"
   sodipodi:docname="bonhomme_orange.svg"
   inkscape:version="0.92.4 5da689c313, 2019-01-14"><metadata
   id="metadata671"><rdf:RDF><cc:Work
       rdf:about=""><dc:format>image/svg+xml</dc:format><dc:type
         rdf:resource="http://purl.org/dc/dcmitype/StillImage" /><dc:title></dc:title></cc:Work></rdf:RDF></metadata><defs
   id="defs669"><clipPath
     id="SVGID_4_-3"><use
       xlink:href="#SVGID_3_"
       overflow="visible"
       id="use13-6"
       style="overflow:visible"
       x="0"
       y="0"
       width="100%"
       height="100%" /></clipPath><clipPath
     id="clipPath4726"><use
       xlink:href="#SVGID_3_"
       overflow="visible"
       id="use4724"
       style="overflow:visible"
       x="0"
       y="0"
       width="100%"
       height="100%" /></clipPath><clipPath
     id="clipPath4730"><use
       xlink:href="#SVGID_3_"
       overflow="visible"
       id="use4728"
       style="overflow:visible"
       x="0"
       y="0"
       width="100%"
       height="100%" /></clipPath><clipPath
     id="clipPath4734"><use
       xlink:href="#SVGID_3_"
       overflow="visible"
       id="use4732"
       style="overflow:visible"
       x="0"
       y="0"
       width="100%"
       height="100%" /></clipPath><clipPath
     id="clipPath4738"><use
       xlink:href="#SVGID_3_"
       overflow="visible"
       id="use4736"
       style="overflow:visible"
       x="0"
       y="0"
       width="100%"
       height="100%" /></clipPath><clipPath
     id="clipPath4742"><use
       xlink:href="#SVGID_3_"
       overflow="visible"
       id="use4740"
       style="overflow:visible"
       x="0"
       y="0"
       width="100%"
       height="100%" /></clipPath><clipPath
     id="clipPath4746"><use
       xlink:href="#SVGID_3_"
       overflow="visible"
       id="use4744"
       style="overflow:visible"
       x="0"
       y="0"
       width="100%"
       height="100%" /></clipPath><clipPath
     id="clipPath4750"><use
       xlink:href="#SVGID_3_"
       overflow="visible"
       id="use4748"
       style="overflow:visible"
       x="0"
       y="0"
       width="100%"
       height="100%" /></clipPath><clipPath
     id="clipPath4754"><use
       xlink:href="#SVGID_3_"
       overflow="visible"
       id="use4752"
       style="overflow:visible"
       x="0"
       y="0"
       width="100%"
       height="100%" /></clipPath><clipPath
     id="clipPath4758"><use
       xlink:href="#SVGID_3_"
       overflow="visible"
       id="use4756"
       style="overflow:visible"
       x="0"
       y="0"
       width="100%"
       height="100%" /></clipPath><clipPath
     id="clipPath4762"><use
       xlink:href="#SVGID_3_"
       overflow="visible"
       id="use4760"
       style="overflow:visible"
       x="0"
       y="0"
       width="100%"
       height="100%" /></clipPath><clipPath
     id="clipPath4766"><use
       xlink:href="#SVGID_3_"
       overflow="visible"
       id="use4764"
       style="overflow:visible"
       x="0"
       y="0"
       width="100%"
       height="100%" /></clipPath><clipPath
     id="clipPath4770"><use
       xlink:href="#SVGID_3_"
       overflow="visible"
       id="use4768"
       style="overflow:visible"
       x="0"
       y="0"
       width="100%"
       height="100%" /></clipPath><clipPath
     id="clipPath4774"><use
       xlink:href="#SVGID_3_"
       overflow="visible"
       id="use4772"
       style="overflow:visible"
       x="0"
       y="0"
       width="100%"
       height="100%" /></clipPath><clipPath
     id="clipPath4778"><use
       xlink:href="#SVGID_3_"
       overflow="visible"
       id="use4776"
       style="overflow:visible"
       x="0"
       y="0"
       width="100%"
       height="100%" /></clipPath><clipPath
     id="clipPath4782"><use
       xlink:href="#SVGID_3_"
       overflow="visible"
       id="use4780"
       style="overflow:visible"
       x="0"
       y="0"
       width="100%"
       height="100%" /></clipPath><clipPath
     id="clipPath4786"><use
       xlink:href="#SVGID_3_"
       overflow="visible"
       id="use4784"
       style="overflow:visible"
       x="0"
       y="0"
       width="100%"
       height="100%" /></clipPath><clipPath
     id="clipPath4790"><use
       xlink:href="#SVGID_3_"
       overflow="visible"
       id="use4788"
       style="overflow:visible"
       x="0"
       y="0"
       width="100%"
       height="100%" /></clipPath><clipPath
     id="clipPath4794"><use
       xlink:href="#SVGID_3_"
       overflow="visible"
       id="use4792"
       style="overflow:visible"
       x="0"
       y="0"
       width="100%"
       height="100%" /></clipPath><clipPath
     id="clipPath4798"><use
       xlink:href="#SVGID_3_"
       overflow="visible"
       id="use4796"
       style="overflow:visible"
       x="0"
       y="0"
       width="100%"
       height="100%" /></clipPath><clipPath
     id="clipPath4802"><use
       xlink:href="#SVGID_3_"
       overflow="visible"
       id="use4800"
       style="overflow:visible"
       x="0"
       y="0"
       width="100%"
       height="100%" /></clipPath><clipPath
     id="clipPath4806"><use
       xlink:href="#SVGID_3_"
       overflow="visible"
       id="use4804"
       style="overflow:visible"
       x="0"
       y="0"
       width="100%"
       height="100%" /></clipPath><clipPath
     id="clipPath4810"><use
       xlink:href="#SVGID_3_"
       overflow="visible"
       id="use4808"
       style="overflow:visible"
       x="0"
       y="0"
       width="100%"
       height="100%" /></clipPath><clipPath
     id="clipPath4814"><use
       xlink:href="#SVGID_3_"
       overflow="visible"
       id="use4812"
       style="overflow:visible"
       x="0"
       y="0"
       width="100%"
       height="100%" /></clipPath><clipPath
     id="clipPath4818"><use
       xlink:href="#SVGID_3_"
       overflow="visible"
       id="use4816"
       style="overflow:visible"
       x="0"
       y="0"
       width="100%"
       height="100%" /></clipPath><clipPath
     id="clipPath4822"><use
       xlink:href="#SVGID_3_"
       overflow="visible"
       id="use4820"
       style="overflow:visible"
       x="0"
       y="0"
       width="100%"
       height="100%" /></clipPath><clipPath
     id="clipPath4826"><use
       xlink:href="#SVGID_3_"
       overflow="visible"
       id="use4824"
       style="overflow:visible"
       x="0"
       y="0"
       width="100%"
       height="100%" /></clipPath><clipPath
     id="clipPath4830"><use
       xlink:href="#SVGID_3_"
       overflow="visible"
       id="use4828"
       style="overflow:visible"
       x="0"
       y="0"
       width="100%"
       height="100%" /></clipPath><clipPath
     id="SVGID_4_-9"><use
       xlink:href="#SVGID_3_"
       overflow="visible"
       id="use13-2"
       style="overflow:visible"
       x="0"
       y="0"
       width="100%"
       height="100%" /></clipPath><clipPath
     id="clipPath5080"><use
       xlink:href="#SVGID_3_"
       overflow="visible"
       id="use5078"
       style="overflow:visible"
       x="0"
       y="0"
       width="100%"
       height="100%" /></clipPath><clipPath
     id="clipPath5084"><use
       xlink:href="#SVGID_3_"
       overflow="visible"
       id="use5082"
       style="overflow:visible"
       x="0"
       y="0"
       width="100%"
       height="100%" /></clipPath><clipPath
     id="clipPath5088"><use
       xlink:href="#SVGID_3_"
       overflow="visible"
       id="use5086"
       style="overflow:visible"
       x="0"
       y="0"
       width="100%"
       height="100%" /></clipPath><clipPath
     id="clipPath5092"><use
       xlink:href="#SVGID_3_"
       overflow="visible"
       id="use5090"
       style="overflow:visible"
       x="0"
       y="0"
       width="100%"
       height="100%" /></clipPath><clipPath
     id="clipPath5096"><use
       xlink:href="#SVGID_3_"
       overflow="visible"
       id="use5094"
       style="overflow:visible"
       x="0"
       y="0"
       width="100%"
       height="100%" /></clipPath><clipPath
     id="SVGID_4_-1"><use
       xlink:href="#SVGID_3_"
       overflow="visible"
       id="use13-29"
       style="overflow:visible"
       x="0"
       y="0"
       width="100%"
       height="100%" /></clipPath><clipPath
     id="clipPath5164"><use
       xlink:href="#SVGID_3_"
       overflow="visible"
       id="use5162"
       style="overflow:visible"
       x="0"
       y="0"
       width="100%"
       height="100%" /></clipPath><clipPath
     id="clipPath5168"><use
       xlink:href="#SVGID_3_"
       overflow="visible"
       id="use5166"
       style="overflow:visible"
       x="0"
       y="0"
       width="100%"
       height="100%" /></clipPath><clipPath
     id="SVGID_6_-3"><use
       xlink:href="#SVGID_5_-4"
       overflow="visible"
       id="use263-1"
       style="overflow:visible"
       x="0"
       y="0"
       width="100%"
       height="100%" /></clipPath><clipPath
     id="clipPath5174"><use
       xlink:href="#SVGID_3_"
       overflow="visible"
       id="use5172"
       style="overflow:visible"
       x="0"
       y="0"
       width="100%"
       height="100%" /></clipPath><clipPath
     id="clipPath5178"><use
       xlink:href="#SVGID_3_"
       overflow="visible"
       id="use5176"
       style="overflow:visible"
       x="0"
       y="0"
       width="100%"
       height="100%" /></clipPath><clipPath
     id="clipPath5182"><use
       xlink:href="#SVGID_3_"
       overflow="visible"
       id="use5180"
       style="overflow:visible"
       x="0"
       y="0"
       width="100%"
       height="100%" /></clipPath><clipPath
     id="clipPath5186"><use
       xlink:href="#SVGID_3_"
       overflow="visible"
       id="use5184"
       style="overflow:visible"
       x="0"
       y="0"
       width="100%"
       height="100%" /></clipPath><clipPath
     id="clipPath5190"><use
       xlink:href="#SVGID_3_"
       overflow="visible"
       id="use5188"
       style="overflow:visible"
       x="0"
       y="0"
       width="100%"
       height="100%" /></clipPath><clipPath
     id="clipPath5194"><use
       xlink:href="#SVGID_3_"
       overflow="visible"
       id="use5192"
       style="overflow:visible"
       x="0"
       y="0"
       width="100%"
       height="100%" /></clipPath><clipPath
     id="clipPath5198"><use
       xlink:href="#SVGID_3_"
       overflow="visible"
       id="use5196"
       style="overflow:visible"
       x="0"
       y="0"
       width="100%"
       height="100%" /></clipPath><clipPath
     id="clipPath5202"><use
       xlink:href="#SVGID_3_"
       overflow="visible"
       id="use5200"
       style="overflow:visible"
       x="0"
       y="0"
       width="100%"
       height="100%" /></clipPath><clipPath
     id="clipPath5206"><use
       xlink:href="#SVGID_3_"
       overflow="visible"
       id="use5204"
       style="overflow:visible"
       x="0"
       y="0"
       width="100%"
       height="100%" /></clipPath><clipPath
     id="clipPath5210"><use
       xlink:href="#SVGID_3_"
       overflow="visible"
       id="use5208"
       style="overflow:visible"
       x="0"
       y="0"
       width="100%"
       height="100%" /></clipPath><clipPath
     id="clipPath5214"><use
       xlink:href="#SVGID_3_"
       overflow="visible"
       id="use5212"
       style="overflow:visible"
       x="0"
       y="0"
       width="100%"
       height="100%" /></clipPath><clipPath
     id="clipPath5218"><use
       xlink:href="#SVGID_3_"
       overflow="visible"
       id="use5216"
       style="overflow:visible"
       x="0"
       y="0"
       width="100%"
       height="100%" /></clipPath><clipPath
     id="clipPath5222"><use
       xlink:href="#SVGID_3_"
       overflow="visible"
       id="use5220"
       style="overflow:visible"
       x="0"
       y="0"
       width="100%"
       height="100%" /></clipPath><clipPath
     id="clipPath5226"><use
       xlink:href="#SVGID_3_"
       overflow="visible"
       id="use5224"
       style="overflow:visible"
       x="0"
       y="0"
       width="100%"
       height="100%" /></clipPath><clipPath
     id="clipPath5230"><use
       xlink:href="#SVGID_3_"
       overflow="visible"
       id="use5228"
       style="overflow:visible"
       x="0"
       y="0"
       width="100%"
       height="100%" /></clipPath><clipPath
     id="clipPath5234"><use
       xlink:href="#SVGID_3_"
       overflow="visible"
       id="use5232"
       style="overflow:visible"
       x="0"
       y="0"
       width="100%"
       height="100%" /></clipPath><clipPath
     id="clipPath5238"><use
       xlink:href="#SVGID_3_"
       overflow="visible"
       id="use5236"
       style="overflow:visible"
       x="0"
       y="0"
       width="100%"
       height="100%" /></clipPath><clipPath
     id="clipPath5242"><use
       xlink:href="#SVGID_3_"
       overflow="visible"
       id="use5240"
       style="overflow:visible"
       x="0"
       y="0"
       width="100%"
       height="100%" /></clipPath><clipPath
     id="clipPath5246"><use
       xlink:href="#SVGID_3_"
       overflow="visible"
       id="use5244"
       style="overflow:visible"
       x="0"
       y="0"
       width="100%"
       height="100%" /></clipPath><clipPath
     id="clipPath5250"><use
       xlink:href="#SVGID_3_"
       overflow="visible"
       id="use5248"
       style="overflow:visible"
       x="0"
       y="0"
       width="100%"
       height="100%" /></clipPath><clipPath
     id="clipPath5254"><use
       xlink:href="#SVGID_3_"
       overflow="visible"
       id="use5252"
       style="overflow:visible"
       x="0"
       y="0"
       width="100%"
       height="100%" /></clipPath><clipPath
     id="clipPath5258"><use
       xlink:href="#SVGID_3_"
       overflow="visible"
       id="use5256"
       style="overflow:visible"
       x="0"
       y="0"
       width="100%"
       height="100%" /></clipPath><clipPath
     id="clipPath5262"><use
       xlink:href="#SVGID_3_"
       overflow="visible"
       id="use5260"
       style="overflow:visible"
       x="0"
       y="0"
       width="100%"
       height="100%" /></clipPath><clipPath
     id="clipPath5266"><use
       xlink:href="#SVGID_3_"
       overflow="visible"
       id="use5264"
       style="overflow:visible"
       x="0"
       y="0"
       width="100%"
       height="100%" /></clipPath><clipPath
     id="clipPath5270"><use
       xlink:href="#SVGID_3_"
       overflow="visible"
       id="use5268"
       style="overflow:visible"
       x="0"
       y="0"
       width="100%"
       height="100%" /></clipPath><clipPath
     id="clipPath5274"><use
       xlink:href="#SVGID_3_"
       overflow="visible"
       id="use5272"
       style="overflow:visible"
       x="0"
       y="0"
       width="100%"
       height="100%" /></clipPath><clipPath
     id="clipPath5278"><use
       xlink:href="#SVGID_3_"
       overflow="visible"
       id="use5276"
       style="overflow:visible"
       x="0"
       y="0"
       width="100%"
       height="100%" /></clipPath><clipPath
     id="clipPath5282"><use
       xlink:href="#SVGID_3_"
       overflow="visible"
       id="use5280"
       style="overflow:visible"
       x="0"
       y="0"
       width="100%"
       height="100%" /></clipPath><clipPath
     id="clipPath5286"><use
       xlink:href="#SVGID_3_"
       overflow="visible"
       id="use5284"
       style="overflow:visible"
       x="0"
       y="0"
       width="100%"
       height="100%" /></clipPath><clipPath
     id="clipPath5290"><use
       xlink:href="#SVGID_3_"
       overflow="visible"
       id="use5288"
       style="overflow:visible"
       x="0"
       y="0"
       width="100%"
       height="100%" /></clipPath><rect
     id="SVGID_5_-4"
     x="116.406"
     y="81.710999"
     width="140.951"
     height="86.487" /></defs><sodipodi:namedview
   pagecolor="#ffffff"
   bordercolor="#666666"
   borderopacity="1"
   objecttolerance="10"
   gridtolerance="10"
   guidetolerance="10"
   inkscape:pageopacity="0"
   inkscape:pageshadow="2"
   inkscape:window-width="1366"
   inkscape:window-height="737"
   id="namedview667"
   showgrid="false"
   inkscape:zoom="3.522388"
   inkscape:cx="53.444939"
   inkscape:cy="64.683824"
   inkscape:window-x="0"
   inkscape:window-y="31"
   inkscape:window-maximized="0"
   inkscape:current-layer="g566"
   fit-margin-top="0"
   fit-margin-left="0"
   fit-margin-right="0"
   fit-margin-bottom="0" />
<g
   id="g664"
   transform="translate(-29.940433,-67.307856)">
	<defs
   id="defs3">
		<rect
   id="SVGID_1_"
   x="-178"
   y="-75.275002"
   width="841.89001"
   height="595.27502" />
	</defs>
	<clipPath
   id="SVGID_2_">
		<use
   xlink:href="#SVGID_1_"
   overflow="visible"
   id="use5"
   style="overflow:visible"
   x="0"
   y="0"
   width="100%"
   height="100%" />
	</clipPath>
	
	<g
   clip-path="url(#SVGID_2_)"
   id="g566">
		<defs
   id="defs11">
			<rect
   id="SVGID_3_"
   x="-178"
   y="-75.275002"
   width="841.89001"
   height="595.27502" />
		</defs>
		<clipPath
   id="SVGID_4_">
			<use
   xlink:href="#SVGID_3_"
   overflow="visible"
   id="use13"
   style="overflow:visible"
   x="0"
   y="0"
   width="100%"
   height="100%" />
		</clipPath>
		
		
		
		
		
		
		
		
		
		
		
		
		
		
		
		
		
		
		
		
		
		
		
		
		
		
		
		
		
		
		
		
		
		
		
		
		
		
		
		
		
		
		
		
		
		
		
		
		
		
		
		
		
		
		
		
		
		
		
		
		
		
		
		
		
		
		<path
   clip-path="url(#SVGID_4_)"
   d="m 30.692,116.375 c -5.126,31.807 16.512,61.779 48.338,66.902 31.811,5.133 61.748,-16.529 66.871,-48.329 C 151.028,103.145 129.413,73.19 97.599,68.061 65.771,62.928 35.824,84.578 30.692,116.375"
   id="path148"
   inkscape:connector-curvature="0"
   style="fill:#d8582f;fill-opacity:1" />
		<path
   clip-path="url(#SVGID_4_)"
   d="m 56.208,133.967 c -0.455,12.869 13.227,23.798 30.535,24.407 17.334,0.605 31.723,-9.34 32.175,-22.211 0.456,-12.87 -13.203,-23.783 -30.536,-24.393 -17.308,-0.606 -31.729,9.321 -32.174,22.197"
   id="path150"
   inkscape:connector-curvature="0"
   style="fill:#ffffff" />
		<path
   clip-path="url(#SVGID_4_)"
   d="m 88.22,161.746 c -0.53,0 -1.059,-0.01 -1.594,-0.028 -9.087,-0.319 -17.574,-3.28 -23.901,-8.336 -6.618,-5.289 -10.12,-12.226 -9.861,-19.533 0.253,-7.309 4.233,-13.983 11.208,-18.791 6.665,-4.595 15.348,-6.954 24.426,-6.632 9.097,0.32 17.589,3.278 23.911,8.329 6.612,5.282 10.111,12.217 9.853,19.526 -0.502,14.283 -15.624,25.464 -34.042,25.465 m -1.356,-46.657 c -7.14,0 -13.84,1.924 -18.994,5.478 -5.187,3.576 -8.141,8.376 -8.319,13.516 v 0.002 c -0.182,5.139 2.429,10.135 7.352,14.069 5.211,4.165 12.299,6.607 19.957,6.876 15.459,0.546 28.328,-7.978 28.714,-18.984 0.182,-5.141 -2.425,-10.135 -7.342,-14.063 -5.207,-4.16 -12.299,-6.6 -19.969,-6.87 -0.468,-0.016 -0.935,-0.024 -1.399,-0.024"
   id="path152"
   inkscape:connector-curvature="0"
   style="fill:#ff9c00;fill-opacity:1" />
		<path
   clip-path="url(#SVGID_4_)"
   d="m 98.669,134.863 c -0.023,1.452 -1.241,2.611 -2.697,2.564 -1.449,-0.056 -2.58,-1.261 -2.546,-2.704 0.025,-1.455 1.246,-2.617 2.697,-2.578 1.45,0.051 2.591,1.277 2.546,2.718"
   id="path154"
   inkscape:connector-curvature="0"
   style="fill:#a0be36" />
		<path
   clip-path="url(#SVGID_4_)"
   d="m 80.402,134.333 c -0.054,1.472 -1.249,2.607 -2.703,2.572 -1.476,-0.053 -2.617,-1.263 -2.568,-2.701 0.04,-1.443 1.263,-2.599 2.708,-2.577 1.465,0.059 2.594,1.269 2.563,2.706"
   id="path156"
   inkscape:connector-curvature="0"
   style="fill:#a0be36" />
		<path
   clip-path="url(#SVGID_4_)"
   d="m 87.98,144.54 c 1.317,-0.209 2.535,-0.812 3.516,-1.752 1.289,-1.225 2.023,-2.87 2.066,-4.633 0.011,-0.457 -0.347,-0.829 -0.803,-0.845 -0.449,-0.015 -0.827,0.35 -0.833,0.802 -0.034,1.333 -0.58,2.568 -1.556,3.49 -0.968,0.925 -2.236,1.417 -3.574,1.382 -1.351,-0.039 -2.602,-0.606 -3.535,-1.592 -0.908,-0.973 -1.383,-2.242 -1.343,-3.57 0.02,-0.451 -0.333,-0.831 -0.788,-0.846 -0.447,-0.022 -0.834,0.339 -0.848,0.789 -0.06,1.768 0.572,3.449 1.787,4.739 1.228,1.316 2.89,2.066 4.685,2.114 0.415,0.017 0.823,-0.014 1.226,-0.078"
   id="path158"
   inkscape:connector-curvature="0"
   style="fill:#a0be36" />
		
		
		
		
		
		
		
		
		
		
		
		
		
		
		
		
		
		
		
		
		
		
		
		
		
		
		
		
		
		
		
		
		
		
		
		
		
		
		
		
		
		
		
		
		
		
		
		
		
		
		
		
		
		
		
		
		
		
		
		
		
		
		
		
		
		
		
		
		
		
		
		
		
		
		
		
		
		
		
		
		
		
		
		
		
		
		
		
		
		
		
		
		
		
		
		
		
		
		
		
		
		
		
		
		
		
		
		
		
		
		
		
		
		
		
		
		
		
		
		
		
		
		
		
		
		
		
		
		
		
		
		
		
		
		
		
		
		
		
		
		
		
		
		
		
		
		
		
		
		
		
		
		
		
		
		
		
		
		
		
		
		
		
		
		
		
		
		
		
		
		
		
		
		
		
		
		
		
		
		
		
		
		
		
		
		
		
		
		
		
		
		
		
	</g>
	
	
	
	
	
	
	
	
	
	
	
	
	
	
	
	
	
	
	
	
	
	
	
	
</g>
</svg>