<?xml version="1.0" encoding="UTF-8" standalone="no"?>
<!-- Generator: Adobe Illustrator 15.0.0, SVG Export Plug-In . SVG Version: 6.00 Build 0)  -->

<svg
   xmlns:dc="http://purl.org/dc/elements/1.1/"
   xmlns:cc="http://creativecommons.org/ns#"
   xmlns:rdf="http://www.w3.org/1999/02/22-rdf-syntax-ns#"
   xmlns:svg="http://www.w3.org/2000/svg"
   xmlns="http://www.w3.org/2000/svg"
   xmlns:xlink="http://www.w3.org/1999/xlink"
   xmlns:sodipodi="http://sodipodi.sourceforge.net/DTD/sodipodi-0.dtd"
   xmlns:inkscape="http://www.inkscape.org/namespaces/inkscape"
   version="1.1"
   id="Calque_1"
   x="0px"
   y="0px"
   width="414px"
   height="268px"
   viewBox="0 0 414 268"
   enable-background="new 0 0 414 268"
   xml:space="preserve"
   sodipodi:docname="logo.svg"
   inkscape:version="0.92.3 (2405546, 2018-03-11)"><metadata
   id="metadata671"><rdf:RDF><cc:Work
       rdf:about=""><dc:format>image/svg+xml</dc:format><dc:type
         rdf:resource="http://purl.org/dc/dcmitype/StillImage" /></cc:Work></rdf:RDF></metadata><defs
   id="defs669" /><sodipodi:namedview
   pagecolor="#ffffff"
   bordercolor="#666666"
   borderopacity="1"
   objecttolerance="10"
   gridtolerance="10"
   guidetolerance="10"
   inkscape:pageopacity="0"
   inkscape:pageshadow="2"
   inkscape:window-width="1680"
   inkscape:window-height="1019"
   id="namedview667"
   showgrid="false"
   inkscape:zoom="0.44029851"
   inkscape:cx="-563.57056"
   inkscape:cy="132.29612"
   inkscape:window-x="0"
   inkscape:window-y="31"
   inkscape:window-maximized="0"
   inkscape:current-layer="g566" />
<g
   id="g664">
	<defs
   id="defs3">
		<rect
   id="SVGID_1_"
   x="-178"
   y="-75.275"
   width="841.89"
   height="595.275" />
	</defs>
	<clipPath
   id="SVGID_2_">
		<use
   xlink:href="#SVGID_1_"
   overflow="visible"
   id="use5" />
	</clipPath>
	<path
   clip-path="url(#SVGID_2_)"
   fill="#366638"
   d="M15.888,255.002h1.278l3.034,8.358h-1.241l-0.873-2.504h-3.279L13.9,263.36   H12.74L15.888,255.002z M17.765,259.936l-1.287-3.693l-1.337,3.693H17.765z"
   id="path8" />
	<g
   clip-path="url(#SVGID_2_)"
   id="g566">
		<defs
   id="defs11">
			<rect
   id="SVGID_3_"
   x="-178"
   y="-75.275"
   width="841.89"
   height="595.275" />
		</defs>
		<clipPath
   id="SVGID_4_">
			<use
   xlink:href="#SVGID_3_"
   overflow="visible"
   id="use13" />
		</clipPath>
		<path
   clip-path="url(#SVGID_4_)"
   fill="#366638"
   d="M21.328,255.002h3.741c0.739,0,1.336,0.211,1.791,0.629    c0.454,0.419,0.682,1.008,0.682,1.767c0,0.652-0.203,1.221-0.609,1.704c-0.406,0.483-1.026,0.726-1.862,0.726h-2.61v3.533h-1.133    V255.002z M25.72,256.151c-0.249-0.117-0.589-0.176-1.022-0.176h-2.237v2.896h2.237c0.504,0,0.914-0.108,1.229-0.323    c0.314-0.217,0.471-0.599,0.471-1.145C26.397,256.789,26.172,256.371,25.72,256.151"
   id="path16" />
		<path
   clip-path="url(#SVGID_4_)"
   fill="#366638"
   d="M29.1,255.002h3.741c0.739,0,1.336,0.211,1.791,0.629    c0.454,0.419,0.682,1.008,0.682,1.767c0,0.652-0.203,1.221-0.609,1.704c-0.406,0.483-1.026,0.726-1.862,0.726h-2.61v3.533H29.1    V255.002z M33.492,256.151c-0.249-0.117-0.589-0.176-1.022-0.176h-2.237v2.896h2.237c0.504,0,0.914-0.108,1.229-0.323    c0.314-0.217,0.471-0.599,0.471-1.145C34.17,256.789,33.944,256.371,33.492,256.151"
   id="path18" />
		<path
   clip-path="url(#SVGID_4_)"
   fill="#366638"
   d="M36.9,255.002h3.8c0.626,0,1.141,0.093,1.547,0.279    c0.771,0.356,1.157,1.015,1.157,1.974c0,0.501-0.103,0.911-0.31,1.229s-0.496,0.575-0.868,0.768    c0.326,0.133,0.572,0.309,0.737,0.523c0.165,0.217,0.257,0.567,0.276,1.053l0.04,1.121c0.011,0.319,0.037,0.556,0.079,0.711    c0.069,0.266,0.19,0.437,0.365,0.513v0.188h-1.389c-0.038-0.072-0.068-0.165-0.091-0.278c-0.022-0.114-0.041-0.334-0.057-0.66    l-0.068-1.395c-0.026-0.546-0.223-0.912-0.592-1.098c-0.21-0.103-0.539-0.154-0.989-0.154h-2.504v3.585H36.9V255.002z     M40.579,258.831c0.516,0,0.925-0.104,1.226-0.318c0.3-0.212,0.45-0.596,0.45-1.149c0-0.595-0.21-1.001-0.63-1.218    c-0.225-0.113-0.526-0.169-0.902-0.169h-2.689v2.854H40.579z"
   id="path20" />
		<polygon
   clip-path="url(#SVGID_4_)"
   fill="#366638"
   points="45.288,255.002 51.353,255.002 51.353,256.026 46.392,256.026     46.392,258.564 50.978,258.564 50.978,259.531 46.392,259.531 46.392,262.364 51.438,262.364 51.438,263.36 45.288,263.36   "
   id="polygon22" />
		<polygon
   clip-path="url(#SVGID_4_)"
   fill="#366638"
   points="52.952,255.002 54.285,255.002 58.454,261.755 58.454,255.002     59.535,255.002 59.535,263.36 58.263,263.36 54.033,256.615 54.033,263.36 52.952,263.36   "
   id="polygon24" />
		<path
   clip-path="url(#SVGID_4_)"
   fill="#366638"
   d="M61.417,255.002h3.341c1.134,0,2.014,0.408,2.639,1.224    c0.557,0.735,0.836,1.679,0.836,2.828c0,0.887-0.164,1.689-0.494,2.406c-0.58,1.267-1.578,1.9-2.992,1.9h-3.33V255.002z     M64.537,262.394c0.375,0,0.682-0.04,0.923-0.12c0.431-0.147,0.783-0.433,1.057-0.854c0.219-0.337,0.377-0.77,0.473-1.297    c0.056-0.314,0.084-0.607,0.084-0.875c0-1.037-0.202-1.841-0.604-2.414c-0.402-0.572-1.051-0.858-1.944-0.858h-1.964v6.418H64.537    z"
   id="path26" />
		<path
   clip-path="url(#SVGID_4_)"
   fill="#366638"
   d="M69.918,255.002h3.8c0.626,0,1.141,0.093,1.547,0.279    c0.771,0.356,1.157,1.015,1.157,1.974c0,0.501-0.103,0.911-0.31,1.229s-0.496,0.575-0.868,0.768    c0.326,0.133,0.572,0.309,0.737,0.523c0.165,0.217,0.257,0.567,0.276,1.053l0.04,1.121c0.011,0.319,0.037,0.556,0.079,0.711    c0.069,0.266,0.19,0.437,0.365,0.513v0.188h-1.389c-0.038-0.072-0.068-0.165-0.091-0.278c-0.022-0.114-0.041-0.334-0.057-0.66    l-0.068-1.395c-0.026-0.546-0.223-0.912-0.592-1.098c-0.21-0.103-0.539-0.154-0.989-0.154h-2.504v3.585h-1.133V255.002z     M73.596,258.831c0.516,0,0.925-0.104,1.226-0.318c0.3-0.212,0.45-0.596,0.45-1.149c0-0.595-0.21-1.001-0.63-1.218    c-0.225-0.113-0.526-0.169-0.902-0.169h-2.689v2.854H73.596z"
   id="path28" />
		<polygon
   clip-path="url(#SVGID_4_)"
   fill="#366638"
   points="78.305,255.002 84.37,255.002 84.37,256.026 79.409,256.026     79.409,258.564 83.995,258.564 83.995,259.531 79.409,259.531 79.409,262.364 84.456,262.364 84.456,263.36 78.305,263.36   "
   id="polygon30" />
		<path
   clip-path="url(#SVGID_4_)"
   fill="#366638"
   d="M91.646,255.002h1.278l3.034,8.358h-1.241l-0.873-2.504h-3.279l-0.906,2.504    h-1.161L91.646,255.002z M92.905,254.342h-0.779l-1.525-1.644h1.268L92.905,254.342z M93.523,259.936l-1.287-3.693l-1.337,3.693    H93.523z"
   id="path32" />
		<path
   clip-path="url(#SVGID_4_)"
   fill="#366638"
   d="M100.324,255.002h3.741c0.739,0,1.336,0.211,1.791,0.629    c0.454,0.419,0.682,1.008,0.682,1.767c0,0.652-0.203,1.221-0.609,1.704c-0.406,0.483-1.026,0.726-1.862,0.726h-2.61v3.533h-1.133    V255.002z M104.716,256.151c-0.249-0.117-0.589-0.176-1.022-0.176h-2.237v2.896h2.237c0.504,0,0.914-0.108,1.229-0.323    c0.314-0.217,0.471-0.599,0.471-1.145C105.394,256.789,105.168,256.371,104.716,256.151"
   id="path34" />
		<path
   clip-path="url(#SVGID_4_)"
   fill="#366638"
   d="M108.124,255.002h3.8c0.626,0,1.141,0.093,1.547,0.279    c0.771,0.356,1.157,1.015,1.157,1.974c0,0.501-0.103,0.911-0.31,1.229s-0.496,0.575-0.868,0.768    c0.326,0.133,0.572,0.309,0.737,0.523c0.165,0.217,0.257,0.567,0.276,1.053l0.04,1.121c0.011,0.319,0.037,0.556,0.079,0.711    c0.069,0.266,0.19,0.437,0.365,0.513v0.188h-1.389c-0.038-0.072-0.068-0.165-0.091-0.278c-0.022-0.114-0.041-0.334-0.057-0.66    l-0.068-1.395c-0.026-0.546-0.223-0.912-0.592-1.098c-0.21-0.103-0.539-0.154-0.989-0.154h-2.504v3.585h-1.133V255.002z     M111.802,258.831c0.516,0,0.925-0.104,1.226-0.318c0.3-0.212,0.45-0.596,0.45-1.149c0-0.595-0.21-1.001-0.63-1.218    c-0.225-0.113-0.526-0.169-0.902-0.169h-2.689v2.854H111.802z"
   id="path36" />
		<path
   clip-path="url(#SVGID_4_)"
   fill="#366638"
   d="M116.511,255.002h6.066v1.024h-4.962v2.537h4.586v0.968h-4.586v2.833h5.047    v0.996h-6.151V255.002z M120.881,252.698l-1.519,1.644h-0.785l1.041-1.644H120.881z"
   id="path38" />
		<polygon
   clip-path="url(#SVGID_4_)"
   fill="#366638"
   points="124.838,255.002 127.239,262.12 129.612,255.002 130.88,255.002     127.832,263.36 126.63,263.36 123.587,255.002   "
   id="polygon40" />
		<polygon
   clip-path="url(#SVGID_4_)"
   fill="#366638"
   points="132.056,255.002 138.121,255.002 138.121,256.026 133.16,256.026     133.16,258.564 137.746,258.564 137.746,259.531 133.16,259.531 133.16,262.364 138.207,262.364 138.207,263.36 132.056,263.36       "
   id="polygon42" />
		<polygon
   clip-path="url(#SVGID_4_)"
   fill="#366638"
   points="139.72,255.002 141.053,255.002 145.222,261.755 145.222,255.002     146.303,255.002 146.303,263.36 145.031,263.36 140.801,256.615 140.801,263.36 139.72,263.36   "
   id="polygon44" />
		<rect
   x="148.391"
   y="255.002"
   clip-path="url(#SVGID_4_)"
   fill="#366638"
   width="1.144"
   height="8.358"
   id="rect46" />
		<path
   clip-path="url(#SVGID_4_)"
   fill="#366638"
   d="M151.508,255.002h3.8c0.626,0,1.141,0.093,1.547,0.279    c0.771,0.356,1.157,1.015,1.157,1.974c0,0.501-0.103,0.911-0.31,1.229s-0.496,0.575-0.868,0.768    c0.326,0.133,0.572,0.309,0.737,0.523c0.165,0.217,0.257,0.567,0.276,1.053l0.04,1.121c0.011,0.319,0.037,0.556,0.079,0.711    c0.069,0.266,0.19,0.437,0.365,0.513v0.188h-1.389c-0.038-0.072-0.068-0.165-0.091-0.278c-0.022-0.114-0.041-0.334-0.057-0.66    l-0.068-1.395c-0.026-0.546-0.223-0.912-0.592-1.098c-0.21-0.103-0.539-0.154-0.989-0.154h-2.504v3.585h-1.133V255.002z     M155.187,258.831c0.516,0,0.925-0.104,1.226-0.318c0.3-0.212,0.45-0.596,0.45-1.149c0-0.595-0.21-1.001-0.63-1.218    c-0.225-0.113-0.526-0.169-0.902-0.169h-2.689v2.854H155.187z"
   id="path48" />
		<polygon
   clip-path="url(#SVGID_4_)"
   fill="#366638"
   points="163.133,255.002 169.198,255.002 169.198,256.026 164.237,256.026     164.237,258.564 168.823,258.564 168.823,259.531 164.237,259.531 164.237,262.364 169.284,262.364 169.284,263.36     163.133,263.36   "
   id="polygon50" />
		<polygon
   clip-path="url(#SVGID_4_)"
   fill="#366638"
   points="176.874,255.002 176.874,255.998 174.058,255.998 174.058,263.36     172.914,263.36 172.914,255.998 170.098,255.998 170.098,255.002   "
   id="polygon52" />
		<path
   clip-path="url(#SVGID_4_)"
   fill="#366638"
   d="M183.387,255.002h1.278l3.034,8.358h-1.241l-0.873-2.504h-3.279l-0.906,2.504    h-1.161L183.387,255.002z M184.646,254.342h-0.779l-1.525-1.644h1.268L184.646,254.342z M185.264,259.936l-1.287-3.693    l-1.337,3.693H185.264z"
   id="path54" />
		<path
   clip-path="url(#SVGID_4_)"
   fill="#366638"
   d="M191.929,255.002h1.622l2.403,7.066l2.387-7.066h1.61v8.358h-1.081v-4.933    c0-0.171,0.004-0.453,0.012-0.848c0.007-0.395,0.011-0.817,0.011-1.27l-2.386,7.05h-1.122l-2.409-7.05v0.256    c0,0.206,0.005,0.518,0.017,0.937c0.011,0.419,0.017,0.729,0.017,0.925v4.933h-1.081V255.002z"
   id="path56" />
		<rect
   x="201.919"
   y="255.002"
   clip-path="url(#SVGID_4_)"
   fill="#366638"
   width="1.144"
   height="8.358"
   id="rect58" />
		<polygon
   clip-path="url(#SVGID_4_)"
   fill="#366638"
   points="205.009,255.002 211.074,255.002 211.074,256.026 206.113,256.026     206.113,258.564 210.699,258.564 210.699,259.531 206.113,259.531 206.113,262.364 211.16,262.364 211.16,263.36 205.009,263.36       "
   id="polygon60" />
		<path
   clip-path="url(#SVGID_4_)"
   fill="#366638"
   d="M213.896,255.002v5.166c0,0.607,0.115,1.112,0.344,1.514    c0.341,0.607,0.914,0.91,1.72,0.91c0.968,0,1.625-0.327,1.974-0.983c0.187-0.357,0.28-0.836,0.28-1.44v-5.166h1.144v4.694    c0,1.028-0.139,1.818-0.417,2.372c-0.51,1.01-1.473,1.514-2.889,1.514c-1.415,0-2.377-0.504-2.883-1.514    c-0.278-0.554-0.417-1.344-0.417-2.372v-4.694H213.896z"
   id="path62" />
		<polygon
   clip-path="url(#SVGID_4_)"
   fill="#366638"
   points="221.792,263.36 220.432,263.36 223.39,259.072 220.617,255.002     222.028,255.002 224.137,258.2 226.229,255.002 227.573,255.002 224.801,259.072 227.709,263.36 226.308,263.36 224.081,259.924       "
   id="polygon64" />
		<path
   clip-path="url(#SVGID_4_)"
   fill="#366638"
   d="M237.662,255.241c0.819,0.437,1.32,1.2,1.503,2.293h-1.121    c-0.133-0.61-0.41-1.056-0.83-1.334c-0.42-0.279-0.949-0.419-1.588-0.419c-0.758,0-1.396,0.291-1.914,0.871    s-0.777,1.445-0.777,2.595c0,0.993,0.213,1.803,0.641,2.427c0.427,0.623,1.125,0.936,2.091,0.936c0.74,0,1.352-0.219,1.837-0.657    c0.485-0.438,0.734-1.146,0.745-2.125h-2.617v-0.938h3.67v4.472h-0.729l-0.273-1.075c-0.377,0.421-0.711,0.713-1.002,0.876    c-0.489,0.28-1.11,0.421-1.864,0.421c-0.973,0-1.811-0.319-2.513-0.961c-0.764-0.805-1.147-1.908-1.147-3.312    c0-1.4,0.374-2.514,1.121-3.339c0.711-0.79,1.631-1.185,2.76-1.185C236.429,254.786,237.098,254.938,237.662,255.241"
   id="path66" />
		<path
   clip-path="url(#SVGID_4_)"
   fill="#366638"
   d="M241.27,255.002h6.065v1.024h-4.961v2.537h4.585v0.968h-4.585v2.833h5.046    v0.996h-6.15V255.002z M245.639,252.698l-1.519,1.644h-0.785l1.041-1.644H245.639z"
   id="path68" />
		<path
   clip-path="url(#SVGID_4_)"
   fill="#366638"
   d="M249.069,255.002h3.8c0.626,0,1.142,0.093,1.548,0.279    c0.771,0.356,1.156,1.015,1.156,1.974c0,0.501-0.104,0.911-0.311,1.229c-0.206,0.318-0.495,0.575-0.867,0.768    c0.326,0.133,0.571,0.309,0.736,0.523c0.165,0.217,0.257,0.567,0.276,1.053l0.04,1.121c0.011,0.319,0.037,0.556,0.079,0.711    c0.068,0.266,0.189,0.437,0.365,0.513v0.188h-1.389c-0.038-0.072-0.068-0.165-0.092-0.278c-0.022-0.114-0.041-0.334-0.057-0.66    l-0.068-1.395c-0.025-0.546-0.223-0.912-0.592-1.098c-0.21-0.103-0.539-0.154-0.989-0.154h-2.504v3.585h-1.133V255.002z     M252.747,258.831c0.517,0,0.925-0.104,1.226-0.318c0.301-0.212,0.451-0.596,0.451-1.149c0-0.595-0.21-1.001-0.631-1.218    c-0.225-0.113-0.524-0.169-0.9-0.169h-2.69v2.854H252.747z"
   id="path70" />
		<polygon
   clip-path="url(#SVGID_4_)"
   fill="#366638"
   points="257.456,255.002 263.521,255.002 263.521,256.026 258.561,256.026     258.561,258.564 263.146,258.564 263.146,259.531 258.561,259.531 258.561,262.364 263.607,262.364 263.607,263.36     257.456,263.36   "
   id="polygon72" />
		<path
   clip-path="url(#SVGID_4_)"
   fill="#366638"
   d="M265.258,255.002h3.799c0.625,0,1.141,0.093,1.547,0.279    c0.771,0.356,1.156,1.015,1.156,1.974c0,0.501-0.104,0.911-0.309,1.229c-0.207,0.318-0.496,0.575-0.869,0.768    c0.326,0.133,0.572,0.309,0.738,0.523c0.164,0.217,0.256,0.567,0.275,1.053l0.039,1.121c0.012,0.319,0.039,0.556,0.08,0.711    c0.068,0.266,0.189,0.437,0.363,0.513v0.188h-1.387c-0.039-0.072-0.068-0.165-0.092-0.278c-0.023-0.114-0.041-0.334-0.057-0.66    l-0.068-1.395c-0.025-0.546-0.223-0.912-0.592-1.098c-0.209-0.103-0.539-0.154-0.99-0.154h-2.504v3.585h-1.131V255.002z     M268.934,258.831c0.518,0,0.926-0.104,1.227-0.318c0.301-0.212,0.451-0.596,0.451-1.149c0-0.595-0.211-1.001-0.631-1.218    c-0.225-0.113-0.525-0.169-0.902-0.169h-2.689v2.854H268.934z"
   id="path74" />
		<polygon
   clip-path="url(#SVGID_4_)"
   fill="#366638"
   points="276.773,255.002 277.905,255.002 277.905,262.364 282.099,262.364     282.099,263.36 276.773,263.36   "
   id="polygon76" />
		<polygon
   clip-path="url(#SVGID_4_)"
   fill="#366638"
   points="283.362,255.002 289.427,255.002 289.427,256.026 284.466,256.026     284.466,258.564 289.052,258.564 289.052,259.531 284.466,259.531 284.466,262.364 289.513,262.364 289.513,263.36     283.362,263.36   "
   id="polygon78" />
		<path
   clip-path="url(#SVGID_4_)"
   fill="#366638"
   d="M300.174,255.611c0.577,0.558,0.898,1.19,0.962,1.9h-1.104    c-0.123-0.539-0.368-0.966-0.735-1.28c-0.366-0.315-0.882-0.474-1.545-0.474c-0.809,0-1.461,0.29-1.958,0.869    c-0.498,0.579-0.746,1.467-0.746,2.662c0,0.979,0.225,1.774,0.674,2.384c0.448,0.609,1.118,0.914,2.009,0.914    c0.82,0,1.444-0.321,1.872-0.962c0.228-0.338,0.397-0.781,0.509-1.331h1.104c-0.098,0.879-0.42,1.617-0.968,2.214    c-0.656,0.716-1.541,1.074-2.654,1.074c-0.96,0-1.767-0.294-2.419-0.882c-0.858-0.778-1.288-1.979-1.288-3.604    c0-1.233,0.322-2.245,0.968-3.034c0.697-0.858,1.659-1.287,2.884-1.287C298.785,254.774,299.597,255.054,300.174,255.611"
   id="path80" />
		<path
   clip-path="url(#SVGID_4_)"
   fill="#366638"
   d="M309.563,256.197c0.554,0.739,0.83,1.686,0.83,2.839    c0,1.248-0.316,2.285-0.95,3.112c-0.743,0.971-1.804,1.457-3.181,1.457c-1.285,0-2.296-0.425-3.032-1.275    c-0.656-0.819-0.984-1.854-0.984-3.106c0-1.13,0.28-2.098,0.842-2.901c0.721-1.032,1.787-1.548,3.198-1.548    C307.762,254.774,308.854,255.249,309.563,256.197 M308.564,261.524c0.446-0.716,0.669-1.538,0.669-2.469    c0-0.983-0.257-1.774-0.771-2.374c-0.514-0.6-1.217-0.9-2.107-0.9c-0.865,0-1.57,0.298-2.117,0.892    c-0.546,0.594-0.818,1.47-0.818,2.628c0,0.927,0.233,1.707,0.702,2.344c0.469,0.636,1.228,0.953,2.278,0.953    C307.397,262.598,308.119,262.24,308.564,261.524"
   id="path82" />
		<polygon
   clip-path="url(#SVGID_4_)"
   fill="#366638"
   points="311.742,255.002 313.076,255.002 317.244,261.755 317.244,255.002     318.325,255.002 318.325,263.36 317.053,263.36 312.823,256.615 312.823,263.36 311.742,263.36   "
   id="polygon84" />
		<polygon
   clip-path="url(#SVGID_4_)"
   fill="#366638"
   points="320.266,255.002 326.063,255.002 326.063,256.026 321.397,256.026     321.397,258.564 325.5,258.564 325.5,259.56 321.397,259.56 321.397,263.36 320.266,263.36   "
   id="polygon86" />
		<polygon
   clip-path="url(#SVGID_4_)"
   fill="#366638"
   points="327.274,255.002 328.406,255.002 328.406,262.364 332.6,262.364     332.6,263.36 327.274,263.36   "
   id="polygon88" />
		<rect
   x="334.012"
   y="255.002"
   clip-path="url(#SVGID_4_)"
   fill="#366638"
   width="1.145"
   height="8.358"
   id="rect90" />
		<polygon
   clip-path="url(#SVGID_4_)"
   fill="#366638"
   points="343.069,255.002 343.069,255.998 340.253,255.998 340.253,263.36     339.109,263.36 339.109,255.998 336.293,255.998 336.293,255.002   "
   id="polygon92" />
		<path
   clip-path="url(#SVGID_4_)"
   fill="#68A741"
   d="M315.617,51.157c0-6.907-5.269-12.588-12.008-13.241    c4.298-5.225,4.011-12.963-0.874-17.849c-4.89-4.885-12.625-5.171-17.849-0.872c-0.654-6.737-6.329-12.005-13.242-12.005    c-6.904,0-12.583,5.268-13.231,12.004c-5.229-4.302-12.97-4.012-17.852,0.873c-4.887,4.886-5.174,12.624-0.873,17.849    c-6.739,0.653-12.005,6.334-12.005,13.241c0,6.909,5.266,12.58,12.008,13.236c-4.304,5.221-4.02,12.967,0.87,17.85    c4.882,4.886,12.623,5.174,17.852,0.869c0.648,6.741,6.327,12.006,13.231,12.006c6.909,0,12.588-5.265,13.242-12.006    c5.224,4.303,12.962,4.017,17.849-0.869c4.891-4.885,5.172-12.629,0.874-17.85C310.349,63.737,315.617,58.066,315.617,51.157"
   id="path94" />
		<path
   clip-path="url(#SVGID_4_)"
   fill="#FFFFFF"
   d="M290.412,64.477v-0.98l-3.224,0.772l2.33-3.171l-1.312-0.342l-5.648,6.603    l-1.174-3.162l-0.826,0.28l0.329,4.836l-5.435,6.362l-1.997-23.738l6.675-8.082l-0.729-0.341l-2.885,2.603    c-0.009-0.885-0.054-1.975-0.054-1.975h-0.361l-0.547,2.839l-2.335,2.106l-0.501-5.901l-0.7,0.086l-0.082,1.283l-1.667-1.865    l-0.436,0.496l1.978,3.249l-0.984,15.206l-11.101-5.433l-1.155-3.713h-0.726l0.424,3.001l-5.331-2.612l-0.867,0.76l2.185,1.371    l-2.185-0.24v0.586l4.082,0.85l7.96,4.995l-3.94,0.563l-1.411-1.65h-0.577l1.212,1.99l-2.595,1.408l0.327,0.625l3.741-1.122h6.134    l3.823,2.403l-4.626,64.915c0,0,8.586,3.638,12.25-0.802l-2.648-49.728l9.886-13.49L290.412,64.477z"
   id="path96" />
		<path
   clip-path="url(#SVGID_4_)"
   fill="#366638"
   d="M66.485,130.162c-0.804,0-1.457-0.652-1.457-1.457V59.93    c0-12.359-10.054-22.414-22.412-22.414c-12.358,0-22.413,10.055-22.413,22.414v68.775c0,0.805-0.652,1.457-1.456,1.457    c-0.804,0-1.457-0.652-1.457-1.457V59.93c0-13.965,11.362-25.327,25.326-25.327c13.965,0,25.326,11.362,25.326,25.327v68.775    C67.942,129.51,67.289,130.162,66.485,130.162"
   id="path98" />
		<path
   clip-path="url(#SVGID_4_)"
   fill="#366638"
   d="M131.356,150.508c-0.805,0-1.457-0.652-1.457-1.457V25.73    c0-0.804,0.652-1.456,1.457-1.456c0.804,0,1.456,0.652,1.456,1.456v123.321C132.813,149.856,132.16,150.508,131.356,150.508"
   id="path100" />
		<path
   clip-path="url(#SVGID_4_)"
   fill="#DBDA1F"
   d="M131.902,122.836c1.673,2.171,8.819-0.526,15.962-6.025    c7.144-5.499,11.579-11.718,9.906-13.889c-1.67-2.17-8.816,0.526-15.959,6.025C134.667,114.447,130.232,120.666,131.902,122.836"
   id="path102" />
		<path
   clip-path="url(#SVGID_4_)"
   fill="#DBDA1F"
   d="M131.902,105.286c1.673,2.171,8.819-0.528,15.962-6.027    c7.144-5.499,11.579-11.716,9.906-13.889c-1.67-2.171-8.816,0.528-15.959,6.027C134.667,96.896,130.232,103.114,131.902,105.286"
   id="path104" />
		<path
   clip-path="url(#SVGID_4_)"
   fill="#DBDA1F"
   d="M131.902,87.735c1.673,2.17,8.819-0.528,15.962-6.027    c7.144-5.499,11.579-11.716,9.906-13.889c-1.67-2.17-8.816,0.527-15.959,6.026C134.667,79.345,130.232,85.563,131.902,87.735"
   id="path106" />
		<path
   clip-path="url(#SVGID_4_)"
   fill="#DBDA1F"
   d="M131.902,70.184c1.673,2.17,8.819-0.526,15.962-6.025    c7.144-5.499,11.579-11.718,9.906-13.889c-1.67-2.17-8.816,0.526-15.959,6.025C134.667,61.793,130.232,68.013,131.902,70.184"
   id="path108" />
		<path
   clip-path="url(#SVGID_4_)"
   fill="#DBDA1F"
   d="M131.902,52.634c1.673,2.17,8.819-0.528,15.962-6.027    c7.144-5.499,11.579-11.717,9.906-13.889c-1.67-2.171-8.816,0.527-15.959,6.027C134.667,44.244,130.232,50.462,131.902,52.634"
   id="path110" />
		<path
   clip-path="url(#SVGID_4_)"
   fill="#DBDA1F"
   d="M130.813,122.836c-1.672,2.171-8.819-0.526-15.962-6.025    s-11.579-11.718-9.906-13.889c1.67-2.17,8.816,0.526,15.96,6.025C128.047,114.447,132.482,120.666,130.813,122.836"
   id="path112" />
		<path
   clip-path="url(#SVGID_4_)"
   fill="#DBDA1F"
   d="M130.813,105.286c-1.672,2.171-8.819-0.528-15.962-6.027    s-11.579-11.716-9.906-13.889c1.67-2.171,8.816,0.528,15.96,6.027C128.047,96.896,132.482,103.114,130.813,105.286"
   id="path114" />
		<path
   clip-path="url(#SVGID_4_)"
   fill="#DBDA1F"
   d="M130.813,87.735c-1.672,2.17-8.819-0.528-15.962-6.027    s-11.579-11.716-9.906-13.889c1.67-2.17,8.816,0.527,15.96,6.026C128.047,79.345,132.482,85.563,130.813,87.735"
   id="path116" />
		<path
   clip-path="url(#SVGID_4_)"
   fill="#DBDA1F"
   d="M130.813,70.184c-1.672,2.17-8.819-0.526-15.962-6.025    s-11.579-11.718-9.906-13.889c1.67-2.17,8.816,0.526,15.96,6.025C128.047,61.793,132.482,68.013,130.813,70.184"
   id="path118" />
		<path
   clip-path="url(#SVGID_4_)"
   fill="#DBDA1F"
   d="M130.813,52.634c-1.672,2.17-8.819-0.528-15.962-6.027    s-11.579-11.717-9.906-13.889c1.67-2.171,8.816,0.527,15.96,6.027C128.047,44.244,132.482,50.462,130.813,52.634"
   id="path120" />
		<path
   clip-path="url(#SVGID_4_)"
   fill="#DBDA1F"
   d="M131.618,37.809c-2.742,0.01-4.993-7.289-5.03-16.304    c-0.036-9.015,2.157-16.332,4.896-16.343c2.74-0.011,4.99,7.288,5.028,16.303C136.548,30.48,134.358,37.798,131.618,37.809"
   id="path122" />
		<path
   clip-path="url(#SVGID_4_)"
   fill="#DBDA1F"
   d="M169.241,128.526c-4.37,0-8.331-2.986-9.389-7.423    c-1.236-5.19,1.968-10.4,7.158-11.637c0.545-0.131,56.202-14.098,57.054-56.531c0.106-5.334,4.526-9.597,9.851-9.464    c5.335,0.107,9.573,4.518,9.465,9.852c-0.482,24.092-13.317,44.777-37.114,59.818c-17.152,10.841-34.066,14.95-34.777,15.119    C170.737,128.44,169.983,128.526,169.241,128.526"
   id="path124" />
		<path
   clip-path="url(#SVGID_4_)"
   fill="#DBDA1F"
   d="M233.851,45.928c-0.009,2.398,1.932,4.347,4.33,4.354s4.347-1.93,4.353-4.328    l0.039-15.273c0.006-2.397-1.931-4.345-4.329-4.354c-2.396-0.005-4.348,1.934-4.353,4.33L233.851,45.928z"
   id="path126" />
		<path
   clip-path="url(#SVGID_4_)"
   fill="#DBDA1F"
   d="M226.309,48.07c0.535,2.337,2.865,3.798,5.206,3.259    c2.333-0.536,3.793-2.866,3.257-5.205l-3.419-14.881c-0.538-2.336-2.868-3.792-5.203-3.257c-2.336,0.537-3.795,2.866-3.26,5.203    L226.309,48.07z"
   id="path128" />
		<path
   clip-path="url(#SVGID_4_)"
   fill="#DBDA1F"
   d="M224.849,54.676c1.622,1.767,4.37,1.885,6.137,0.262    c1.769-1.619,1.883-4.367,0.261-6.133l-10.318-11.249c-1.622-1.772-4.37-1.889-6.137-0.268c-1.766,1.622-1.882,4.37-0.264,6.137    L224.849,54.676z"
   id="path130" />
		<path
   clip-path="url(#SVGID_4_)"
   fill="#DBDA1F"
   d="M233.936,48.854c-1.798,1.587-1.963,4.331-0.375,6.13    c1.59,1.793,4.335,1.962,6.13,0.373l11.431-10.121c1.802-1.588,1.967-4.329,0.382-6.127c-1.591-1.795-4.337-1.963-6.134-0.373    L233.936,48.854z"
   id="path132" />
		<path
   clip-path="url(#SVGID_4_)"
   fill="#68A741"
   d="M22.762,164.795c-1.415,0-2.85-0.312-4.208-0.971    c-4.801-2.327-6.805-8.106-4.477-12.907c10.061-20.748,27.739-35.806,49.777-42.399c22.748-6.809,47.827-3.538,68.801,8.972    c4.581,2.733,6.08,8.663,3.347,13.245c-2.733,4.581-8.662,6.081-13.245,3.348c-16.336-9.744-35.788-12.316-53.365-7.056    c-16.789,5.023-30.26,16.501-37.931,32.321C29.791,162.79,26.347,164.795,22.762,164.795"
   id="path134" />
		<path
   clip-path="url(#SVGID_4_)"
   fill="#DBDA1F"
   d="M343.187,116.375c5.127,31.807-16.512,61.779-48.337,66.902    c-31.813,5.133-61.747-16.529-66.874-48.329c-5.123-31.803,16.489-61.758,48.303-66.887    C308.106,62.928,338.055,84.578,343.187,116.375"
   id="path136" />
		<path
   clip-path="url(#SVGID_4_)"
   fill="#FFFFFF"
   d="M317.671,133.967c0.455,12.869-13.229,23.798-30.536,24.407    c-17.331,0.605-31.721-9.34-32.176-22.211c-0.455-12.87,13.203-23.783,30.54-24.393    C302.807,111.164,317.225,121.091,317.671,133.967"
   id="path138" />
		<path
   clip-path="url(#SVGID_4_)"
   fill="#A0BE36"
   d="M285.658,161.746c-18.417,0-33.538-11.181-34.042-25.465    c-0.259-7.309,3.24-14.244,9.853-19.526c6.322-5.051,14.815-8.009,23.912-8.329c9.081-0.319,17.762,2.037,24.427,6.632    c6.973,4.808,10.953,11.482,11.208,18.791c0.259,7.307-3.244,14.244-9.862,19.533c-6.327,5.056-14.815,8.017-23.901,8.336    C286.719,161.736,286.187,161.746,285.658,161.746 M287.016,115.089c-0.465,0-0.931,0.008-1.399,0.024    c-7.671,0.27-14.764,2.71-19.971,6.87c-4.917,3.928-7.525,8.921-7.342,14.062c0.39,11.007,13.271,19.512,28.715,18.985    c7.657-0.269,14.745-2.711,19.957-6.876c4.923-3.934,7.534-8.93,7.352-14.069v-0.002c-0.178-5.14-3.132-9.94-8.318-13.516    C300.855,117.013,294.155,115.089,287.016,115.089"
   id="path140" />
		<path
   clip-path="url(#SVGID_4_)"
   fill="#A0BE36"
   d="M275.212,134.863c0.02,1.452,1.237,2.611,2.694,2.564    c1.448-0.056,2.58-1.261,2.546-2.704c-0.022-1.455-1.246-2.617-2.697-2.578C276.305,132.196,275.166,133.422,275.212,134.863"
   id="path142" />
		<path
   clip-path="url(#SVGID_4_)"
   fill="#A0BE36"
   d="M293.476,134.333c0.054,1.472,1.252,2.607,2.703,2.572    c1.476-0.053,2.617-1.263,2.567-2.701c-0.036-1.443-1.259-2.599-2.707-2.577C294.577,131.686,293.444,132.896,293.476,134.333"
   id="path144" />
		<path
   clip-path="url(#SVGID_4_)"
   fill="#A0BE36"
   d="M285.897,144.54c-1.314-0.209-2.532-0.812-3.514-1.752    c-1.292-1.225-2.025-2.87-2.068-4.633c-0.009-0.457,0.35-0.829,0.805-0.845c0.447-0.015,0.825,0.35,0.834,0.802    c0.031,1.333,0.58,2.568,1.557,3.49c0.967,0.925,2.235,1.417,3.57,1.382c1.354-0.039,2.603-0.606,3.536-1.592    c0.91-0.973,1.385-2.242,1.342-3.57c-0.017-0.451,0.334-0.831,0.791-0.846c0.444-0.022,0.831,0.339,0.845,0.789    c0.063,1.768-0.571,3.449-1.783,4.739c-1.231,1.316-2.891,2.066-4.685,2.114C286.711,144.635,286.301,144.604,285.897,144.54"
   id="path146" />
		<path
   clip-path="url(#SVGID_4_)"
   fill="#A0BE36"
   d="M30.692,116.375c-5.126,31.807,16.512,61.779,48.338,66.902    c31.811,5.133,61.748-16.529,66.871-48.329c5.127-31.803-16.488-61.758-48.302-66.887C65.771,62.928,35.824,84.578,30.692,116.375    "
   id="path148" />
		<path
   clip-path="url(#SVGID_4_)"
   fill="#FFFFFF"
   d="M56.208,133.967c-0.455,12.869,13.227,23.798,30.535,24.407    c17.334,0.605,31.723-9.34,32.175-22.211c0.456-12.87-13.203-23.783-30.536-24.393C71.074,111.164,56.653,121.091,56.208,133.967"
   id="path150" />
		<path
   clip-path="url(#SVGID_4_)"
   fill="#DBDA1F"
   d="M88.22,161.746c-0.53,0-1.059-0.01-1.594-0.028    c-9.087-0.319-17.574-3.28-23.901-8.336c-6.618-5.289-10.12-12.226-9.861-19.533c0.253-7.309,4.233-13.983,11.208-18.791    c6.665-4.595,15.348-6.954,24.426-6.632c9.097,0.32,17.589,3.278,23.911,8.329c6.612,5.282,10.111,12.217,9.853,19.526    C121.76,150.564,106.638,161.745,88.22,161.746 M86.864,115.089c-7.14,0-13.84,1.924-18.994,5.478    c-5.187,3.576-8.141,8.376-8.319,13.516v0.002c-0.182,5.139,2.429,10.135,7.352,14.069c5.211,4.165,12.299,6.607,19.957,6.876    c15.459,0.546,28.328-7.978,28.714-18.984c0.182-5.141-2.425-10.135-7.342-14.063c-5.207-4.16-12.299-6.6-19.969-6.87    C87.795,115.097,87.328,115.089,86.864,115.089"
   id="path152" />
		<path
   clip-path="url(#SVGID_4_)"
   fill="#A0BE36"
   d="M98.669,134.863c-0.023,1.452-1.241,2.611-2.697,2.564    c-1.449-0.056-2.58-1.261-2.546-2.704c0.025-1.455,1.246-2.617,2.697-2.578C97.573,132.196,98.714,133.422,98.669,134.863"
   id="path154" />
		<path
   clip-path="url(#SVGID_4_)"
   fill="#A0BE36"
   d="M80.402,134.333c-0.054,1.472-1.249,2.607-2.703,2.572    c-1.476-0.053-2.617-1.263-2.568-2.701c0.04-1.443,1.263-2.599,2.708-2.577C79.304,131.686,80.433,132.896,80.402,134.333"
   id="path156" />
		<path
   clip-path="url(#SVGID_4_)"
   fill="#A0BE36"
   d="M87.98,144.54c1.317-0.209,2.535-0.812,3.516-1.752    c1.289-1.225,2.023-2.87,2.066-4.633c0.011-0.457-0.347-0.829-0.803-0.845c-0.449-0.015-0.827,0.35-0.833,0.802    c-0.034,1.333-0.58,2.568-1.556,3.49c-0.968,0.925-2.236,1.417-3.574,1.382c-1.351-0.039-2.602-0.606-3.535-1.592    c-0.908-0.973-1.383-2.242-1.343-3.57c0.02-0.451-0.333-0.831-0.788-0.846c-0.447-0.022-0.834,0.339-0.848,0.789    c-0.06,1.768,0.572,3.449,1.787,4.739c1.228,1.316,2.89,2.066,4.685,2.114C87.169,144.635,87.577,144.604,87.98,144.54"
   id="path158" />
		<path
   clip-path="url(#SVGID_4_)"
   fill="#436FB3"
   d="M129.499,116.375c-5.126,31.805,16.508,61.779,48.337,66.902    c31.811,5.133,61.747-16.531,66.871-48.331c5.124-31.8-16.489-61.756-48.303-66.885C164.576,62.93,134.63,84.579,129.499,116.375"
   id="path160" />
		<path
   clip-path="url(#SVGID_4_)"
   fill="#FFFFFF"
   d="M187.251,189.134c-3.394,0-6.812-0.273-10.228-0.824    c-16.734-2.693-31.419-11.748-41.347-25.493c-9.926-13.742-13.908-30.524-11.211-47.253v-0.002    c5.575-34.537,38.213-58.102,72.75-52.534c34.525,5.567,58.087,38.193,52.525,72.729c-2.695,16.727-11.742,31.407-25.475,41.336    C213.333,184.998,200.475,189.134,187.251,189.134 M134.531,117.187c-2.263,14.041,1.079,28.126,9.41,39.661    c8.333,11.537,20.658,19.136,34.704,21.397c14.038,2.264,28.117-1.079,39.646-9.414c11.527-8.333,19.12-20.655,21.382-34.695    c4.67-28.986-15.105-56.369-44.081-61.041C166.602,68.416,139.209,88.201,134.531,117.187L134.531,117.187z"
   id="path162" />
		<path
   clip-path="url(#SVGID_4_)"
   fill="#FFFFFF"
   d="M155.011,133.965c-0.453,12.87,13.229,23.8,30.537,24.409    c17.33,0.603,31.72-9.34,32.175-22.213c0.455-12.87-13.203-23.783-30.54-24.392C169.878,111.163,155.457,121.089,155.011,133.965"
   id="path164" />
		<path
   clip-path="url(#SVGID_4_)"
   fill="#FFFFFF"
   d="M187.017,163.498c-0.547,0-1.095-0.01-1.647-0.029    c-20.099-0.707-36.002-14.021-35.454-29.68c0.273-7.879,4.522-15.043,11.965-20.174c6.972-4.807,16.019-7.279,25.48-6.94    c9.472,0.333,18.331,3.426,24.946,8.709c7.057,5.638,10.789,13.08,10.511,20.958C222.28,151.569,206.374,163.497,187.017,163.498     M185.663,116.841c-6.785,0-13.131,1.815-17.994,5.168c-4.719,3.253-7.404,7.562-7.564,12.133v0.003    c-0.346,9.871,11.387,18.634,25.621,19.134c14.488,0.508,26.547-7.255,26.902-17.297c0.162-4.573-2.212-9.058-6.685-12.631    c-4.915-3.927-11.641-6.23-18.939-6.487C186.556,116.849,186.108,116.841,185.663,116.841"
   id="path166" />
		<path
   clip-path="url(#SVGID_4_)"
   fill="#2A265A"
   d="M197.473,134.861c-0.022,1.454-1.24,2.611-2.697,2.566    c-1.448-0.057-2.58-1.263-2.546-2.705c0.023-1.454,1.246-2.618,2.697-2.578C196.378,132.195,197.519,133.422,197.473,134.861"
   id="path168" />
		<path
   clip-path="url(#SVGID_4_)"
   fill="#FFFFFF"
   d="M194.864,142.527c-0.082,0-0.164-0.001-0.246-0.003    c-4.245-0.168-7.584-3.721-7.485-7.922c0.033-2.033,0.878-3.967,2.38-5.406c1.505-1.441,3.486-2.201,5.553-2.147    c4.276,0.15,7.616,3.706,7.504,7.934c-0.044,2.063-0.89,3.983-2.386,5.41C198.736,141.775,196.855,142.527,194.864,142.527     M192.377,134.741c-0.021,1.334,1.034,2.451,2.37,2.499c0.694,0.03,1.347-0.23,1.819-0.681c0.474-0.454,0.751-1.094,0.761-1.756    c0.031-1.291-1.023-2.416-2.349-2.469c-0.717-0.021-1.356,0.227-1.832,0.682C192.677,133.464,192.398,134.09,192.377,134.741"
   id="path170" />
		<path
   clip-path="url(#SVGID_4_)"
   fill="#2A265A"
   d="M179.207,134.332c-0.054,1.474-1.249,2.609-2.703,2.572    c-1.476-0.051-2.617-1.263-2.568-2.7c0.039-1.442,1.263-2.6,2.708-2.577C178.108,131.684,179.237,132.895,179.207,134.332"
   id="path172" />
		<path
   clip-path="url(#SVGID_4_)"
   fill="#FFFFFF"
   d="M176.57,142.002c-0.065,0-0.13,0-0.196-0.002    c-4.319-0.15-7.677-3.723-7.534-7.967c0.114-4.19,3.664-7.61,7.884-7.503l0.116,0.003c4.206,0.162,7.554,3.711,7.463,7.91    l-0.002,0.077C184.148,138.685,180.699,142.002,176.57,142.002 M176.601,134.276l-0.039,2.448c0.013,0.001,0.028,0.001,0.04,0.001    c1.329,0,2.392-1.039,2.429-2.381c0-0.005,0-0.01,0-0.015L176.601,134.276z M174.11,134.222c-0.029,1.327,1.019,2.448,2.336,2.499    l0.094-2.447L174.11,134.222z M176.601,134.237l2.43,0.089c0.036-1.33-1.015-2.471-2.351-2.517    c-0.013-0.001-0.026-0.001-0.04-0.001L176.601,134.237z M176.612,131.808c-1.357,0-2.453,1.036-2.5,2.337l2.43,0.089l0.094-2.426    H176.612z"
   id="path174" />
		<path
   clip-path="url(#SVGID_4_)"
   fill="#2A265A"
   d="M186.785,144.54c1.317-0.21,2.535-0.813,3.516-1.752    c1.289-1.227,2.023-2.871,2.066-4.635c0.011-0.455-0.347-0.827-0.803-0.845c-0.449-0.014-0.827,0.35-0.833,0.803    c-0.034,1.334-0.58,2.569-1.556,3.49c-0.968,0.925-2.236,1.417-3.574,1.383c-1.351-0.04-2.603-0.606-3.536-1.593    c-0.907-0.973-1.382-2.242-1.342-3.571c0.017-0.449-0.333-0.83-0.789-0.844c-0.446-0.023-0.833,0.338-0.847,0.788    c-0.06,1.769,0.572,3.45,1.786,4.739c1.229,1.317,2.888,2.065,4.686,2.114C185.974,144.634,186.381,144.602,186.785,144.54"
   id="path176" />
		<path
   clip-path="url(#SVGID_4_)"
   fill="#FFFFFF"
   d="M185.79,149.719c-0.147,0-0.294-0.003-0.441-0.009    c-3.098-0.083-6.037-1.408-8.203-3.73c-2.133-2.262-3.26-5.248-3.154-8.388c0.049-1.564,0.744-3.081,1.905-4.151    c1.16-1.068,2.721-1.635,4.293-1.557c1.489,0.045,2.959,0.711,4.041,1.871c0.83,0.889,1.354,1.985,1.527,3.162    c0.244-1.16,0.836-2.239,1.699-3.066c1.139-1.09,2.684-1.69,4.268-1.638c3.257,0.122,5.818,2.843,5.738,6.066    c-0.075,3.121-1.371,6.035-3.648,8.202c-1.719,1.644-3.875,2.718-6.225,3.093l-0.026,0.004    C186.952,149.672,186.368,149.719,185.79,149.719 M195.829,138.17c-0.002,0.062-0.004,0.124-0.007,0.186    C195.826,138.294,195.828,138.232,195.829,138.17 M184.182,137.923v0.005V137.923z M175.627,137.667    c-0.001,0.033-0.002,0.066-0.002,0.1C175.625,137.732,175.626,137.7,175.627,137.667"
   id="path178" />
		<path
   clip-path="url(#SVGID_4_)"
   fill="#68A741"
   d="M129.499,116.09c-5.126,31.807,16.508,61.778,48.337,66.902    c31.811,5.134,61.747-16.53,66.871-48.33c5.124-31.801-16.489-61.756-48.303-66.885C164.576,62.644,134.63,84.293,129.499,116.09"
   id="path180" />
		<path
   clip-path="url(#SVGID_4_)"
   fill="#FFFFFF"
   d="M155.011,133.681c-0.453,12.869,13.229,23.799,30.537,24.407    c17.33,0.605,31.72-9.339,32.175-22.211c0.455-12.87-13.203-23.782-30.54-24.393C169.878,110.88,155.457,120.805,155.011,133.681"
   id="path182" />
		<path
   clip-path="url(#SVGID_4_)"
   fill="#366638"
   d="M187.024,161.46c-0.529,0-1.059-0.01-1.593-0.028    c-19.133-0.673-34.279-13.175-33.764-27.868c0.253-7.309,4.234-13.983,11.209-18.792c6.664-4.594,15.339-6.947,24.424-6.632    c9.098,0.32,17.591,3.278,23.913,8.329c6.613,5.282,10.113,12.216,9.854,19.526C220.562,150.278,205.44,161.459,187.024,161.46     M185.669,114.803c-7.14,0-13.84,1.925-18.995,5.479c-5.187,3.576-8.141,8.375-8.319,13.515v0.001    c-0.387,11.006,11.864,20.403,27.31,20.946c15.452,0.537,28.325-7.978,28.714-18.985c0.182-5.141-2.425-10.135-7.342-14.062    c-5.208-4.16-12.3-6.6-19.972-6.87C186.598,114.811,186.133,114.803,185.669,114.803"
   id="path184" />
		<path
   clip-path="url(#SVGID_4_)"
   fill="#2A265A"
   d="M197.473,134.577c-0.022,1.453-1.24,2.612-2.697,2.565    c-1.448-0.057-2.58-1.262-2.546-2.704c0.023-1.455,1.246-2.617,2.697-2.579C196.378,131.91,197.519,133.136,197.473,134.577"
   id="path186" />
		<path
   clip-path="url(#SVGID_4_)"
   fill="#2A265A"
   d="M179.207,134.048c-0.054,1.472-1.249,2.607-2.703,2.572    c-1.476-0.053-2.617-1.263-2.568-2.702c0.039-1.442,1.263-2.599,2.708-2.576C178.108,131.399,179.237,132.611,179.207,134.048"
   id="path188" />
		<path
   clip-path="url(#SVGID_4_)"
   fill="#2A265A"
   d="M186.785,144.253c1.317-0.209,2.535-0.812,3.516-1.752    c1.289-1.225,2.023-2.869,2.066-4.633c0.011-0.457-0.347-0.829-0.803-0.845c-0.449-0.014-0.827,0.35-0.833,0.802    c-0.034,1.333-0.58,2.568-1.556,3.491c-0.968,0.924-2.236,1.416-3.574,1.381c-1.351-0.038-2.603-0.606-3.536-1.591    c-0.907-0.974-1.382-2.243-1.342-3.571c0.017-0.451-0.333-0.831-0.789-0.846c-0.446-0.021-0.833,0.339-0.847,0.789    c-0.06,1.768,0.572,3.45,1.786,4.739c1.229,1.316,2.888,2.066,4.686,2.115C185.974,144.35,186.381,144.317,186.785,144.253"
   id="path190" />
		<path
   clip-path="url(#SVGID_4_)"
   fill="#68A741"
   d="M286.832,210.404c-15.509,0-31.068-4.23-44.858-12.455    c-4.582-2.732-6.081-8.662-3.349-13.244c2.735-4.583,8.665-6.081,13.246-3.348c16.338,9.744,35.79,12.317,53.369,7.055    c16.788-5.023,30.258-16.501,37.929-32.319c2.329-4.8,8.108-6.805,12.907-4.477c4.801,2.329,6.805,8.107,4.478,12.908    c-10.062,20.747-27.739,35.804-49.775,42.398C302.983,209.254,294.914,210.404,286.832,210.404"
   id="path192" />
		<path
   clip-path="url(#SVGID_4_)"
   fill="#366638"
   d="M244.049,202.04l-13.948-7.37c-5.988-3.159-8.287-10.584-5.126-16.576    c3.172-5.987,10.591-8.283,16.585-5.113l13.676,7.216"
   id="path194" />
		<path
   clip-path="url(#SVGID_4_)"
   fill="#332624"
   d="M13.586,229.479c0,3.142,2.546,5.688,5.688,5.688    c0.685,0,1.339-0.127,1.947-0.349c-0.002,0.07-0.005,0.139-0.005,0.21c0,3.831,3.107,6.936,6.937,6.936    c2.374,0,4.468-1.191,5.718-3.011c2.859,1.383,6.191,2.179,9.751,2.179c9.067,0,16.661-5.147,18.681-12.07    c0.017,0,0.031,0.001,0.048,0.001c1.687,0,3.246-0.555,4.503-1.489c0.911,0.62,1.992,0.981,3.15,0.981    c3.243,0,5.872-2.815,5.872-6.29s-2.629-6.289-5.872-6.289c-0.171,0-0.339,0.009-0.507,0.025c0.524-0.939,0.828-2.017,0.828-3.17    c0-3.6-2.918-6.52-6.518-6.52c-0.91,0-1.774,0.186-2.563,0.522c0.131-0.452,0.206-0.929,0.206-1.424    c0-2.873-2.331-5.202-5.205-5.202c-1.175,0-2.256,0.396-3.127,1.053c-0.72-2.142-2.742-3.69-5.126-3.69    c-2.296,0-4.253,1.434-5.039,3.451c-1.042-1.178-2.56-1.923-4.257-1.923c-2.189,0-4.086,1.237-5.037,3.051    c-0.458-0.263-0.987-0.417-1.553-0.417c-1.155,0-2.159,0.629-2.7,1.562c-0.543-0.199-1.126-0.313-1.738-0.313    c-2.797,0-5.064,2.267-5.064,5.064c0,0.381,0.046,0.751,0.125,1.107c-0.244-0.04-0.494-0.066-0.749-0.066    c-2.568,0-4.647,2.08-4.647,4.647c0,0.622,0.123,1.215,0.346,1.757c-2.192,0.558-3.814,2.538-3.814,4.902    c0,1.806,0.947,3.388,2.373,4.284C14.646,225.685,13.586,227.456,13.586,229.479 M57.367,214.389    c0.031-0.025,0.06-0.056,0.088-0.083c0.017,0.067,0.032,0.134,0.049,0.203C57.458,214.469,57.412,214.429,57.367,214.389"
   id="path196" />
		<path
   clip-path="url(#SVGID_4_)"
   fill="#332624"
   d="M28.153,242.103c-3.902,0-7.076-3.173-7.076-7.074v-0.014    c-0.59,0.192-1.195,0.29-1.803,0.29c-3.213,0-5.827-2.613-5.827-5.826c0-1.933,0.944-3.712,2.538-4.803    c-1.419-0.973-2.259-2.559-2.259-4.284c0-2.326,1.541-4.359,3.767-4.996c-0.199-0.534-0.299-1.092-0.299-1.663    c0-2.639,2.147-4.786,4.786-4.786c0.182,0,0.371,0.013,0.574,0.039c-0.059-0.315-0.088-0.631-0.088-0.941    c0-2.869,2.333-5.203,5.202-5.203c0.566,0,1.13,0.096,1.678,0.284c0.595-0.949,1.642-1.533,2.76-1.533    c0.518,0,1.033,0.127,1.497,0.368c1.029-1.855,2.968-3.002,5.093-3.002c1.59,0,3.112,0.656,4.212,1.808    c0.883-2.033,2.855-3.335,5.084-3.335c2.321,0,4.385,1.441,5.194,3.606c0.904-0.635,1.957-0.969,3.059-0.969    c2.946,0,5.343,2.396,5.343,5.34c0,0.398-0.047,0.798-0.139,1.193c0.753-0.285,1.545-0.429,2.358-0.429    c3.671,0,6.657,2.986,6.657,6.658c0,1.042-0.251,2.078-0.726,3.013c0.09-0.004,0.178-0.006,0.266-0.006    c3.314,0,6.01,2.883,6.01,6.427c0,3.543-2.696,6.427-6.01,6.427c-1.115,0-2.201-0.328-3.146-0.949    c-1.303,0.943-2.84,1.447-4.452,1.458c-2.134,7.112-9.84,12.069-18.784,12.069c-3.411,0-6.764-0.74-9.705-2.142    C32.59,240.993,30.444,242.103,28.153,242.103 M21.369,234.617l-0.009,0.207c-0.003,0.067-0.006,0.135-0.006,0.204    c0,3.748,3.05,6.797,6.799,6.797c2.239,0,4.334-1.103,5.604-2.951l0.067-0.098l0.108,0.052c2.929,1.416,6.279,2.165,9.69,2.165    c8.864,0,16.491-4.923,18.547-11.971l0.03-0.1l0.152,0.001c1.605,0,3.134-0.505,4.421-1.462l0.079-0.059l0.082,0.056    c0.917,0.625,1.979,0.956,3.071,0.956c3.161,0,5.733-2.759,5.733-6.15c0-3.391-2.572-6.15-5.733-6.15    c-0.16,0-0.322,0.008-0.493,0.024l-0.263,0.024l0.128-0.23c0.53-0.95,0.81-2.023,0.81-3.102c0-3.518-2.861-6.381-6.379-6.381    c-0.869,0-1.713,0.172-2.508,0.511l-0.269,0.114l0.081-0.28c0.133-0.457,0.199-0.923,0.199-1.386c0-2.792-2.272-5.063-5.065-5.063    c-1.103,0-2.155,0.354-3.043,1.025l-0.154,0.115l-0.061-0.182c-0.723-2.15-2.73-3.595-4.995-3.595    c-2.187,0-4.114,1.32-4.909,3.362L43,201.283l-0.151-0.17c-1.055-1.192-2.569-1.877-4.153-1.877c-2.069,0-3.952,1.141-4.914,2.978    l-0.067,0.127l-0.125-0.072c-0.454-0.261-0.967-0.398-1.484-0.398c-1.058,0-2.047,0.572-2.58,1.492l-0.058,0.102l-0.11-0.041    c-0.551-0.202-1.12-0.304-1.69-0.304c-2.715,0-4.925,2.209-4.925,4.925c0,0.354,0.041,0.716,0.122,1.076l0.045,0.2l-0.203-0.033    c-0.265-0.042-0.503-0.063-0.727-0.063c-2.486,0-4.509,2.022-4.509,4.508c0,0.587,0.113,1.16,0.336,1.704l0.06,0.148l-0.155,0.039    c-2.183,0.556-3.709,2.516-3.709,4.768c0,1.7,0.863,3.258,2.308,4.167l0.186,0.117l-0.186,0.117    c-1.619,1.026-2.587,2.778-2.587,4.686c0,3.06,2.491,5.549,5.55,5.549c0.641,0,1.281-0.114,1.9-0.34L21.369,234.617z     M57.745,214.903l-0.593-0.519l0.128-0.103c0.02-0.016,0.038-0.035,0.056-0.052l0.172-0.17l0.13,0.416L57.745,214.903z"
   id="path198" />
		<path
   clip-path="url(#SVGID_4_)"
   fill="#DBDA1F"
   d="M43.472,250.33c-3.128,0-6.198-0.316-9.189-0.955    c-10.675-2.28-19.54-8.648-24.324-17.474c-7.531-13.895-4.772-34.818,19.081-47.921c4.675-2.57,10.549-0.861,13.118,3.816    c2.569,4.676,0.86,10.549-3.816,13.117c-10.861,5.967-15.335,14.517-11.397,21.782c5.913,10.908,22.126,9.831,34.376,3.281    c4.707-2.516,10.559-0.742,13.074,3.962c2.516,4.705,0.741,10.559-3.963,13.074C61.368,247.859,52.201,250.33,43.472,250.33"
   id="path200" />
		<path
   clip-path="url(#SVGID_4_)"
   fill="#A0BE36"
   d="M24.047,184.16l12.992-8.945c5.576-3.844,13.22-2.44,17.067,3.139    c3.836,5.581,2.431,13.221-3.155,17.063l-12.731,8.777"
   id="path202" />
		<path
   clip-path="url(#SVGID_4_)"
   fill="#DBDA1F"
   d="M67.944,233.33c-1.983,1.346-2.5,4.046-1.155,6.028    c1.348,1.985,4.048,2.504,6.031,1.155l12.637-8.574c1.983-1.346,2.501-4.046,1.152-6.031c-1.343-1.983-4.045-2.501-6.028-1.155    L67.944,233.33z"
   id="path204" />
		<path
   clip-path="url(#SVGID_4_)"
   fill="#DBDA1F"
   d="M61.927,228.309c-1.63,1.759-1.524,4.507,0.242,6.137    c1.758,1.624,4.506,1.517,6.136-0.244l10.361-11.214c1.625-1.761,1.516-4.507-0.241-6.134c-1.762-1.624-4.51-1.519-6.137,0.242    L61.927,228.309z"
   id="path206" />
		<path
   clip-path="url(#SVGID_4_)"
   fill="#DBDA1F"
   d="M55.647,230.827c-0.546,2.335,0.906,4.671,3.242,5.214    c2.335,0.55,4.668-0.904,5.215-3.24l3.473-14.865c0.549-2.338-0.905-4.673-3.238-5.217c-2.335-0.546-4.671,0.908-5.217,3.24    L55.647,230.827z"
   id="path208" />
		<path
   clip-path="url(#SVGID_4_)"
   fill="#DBDA1F"
   d="M65.577,235.049c-2.324-0.589-4.685,0.819-5.274,3.146    c-0.586,2.324,0.825,4.686,3.147,5.274l14.804,3.735c2.327,0.591,4.685-0.817,5.274-3.142c0.589-2.324-0.822-4.688-3.149-5.276    L65.577,235.049z"
   id="path210" />
		<path
   clip-path="url(#SVGID_4_)"
   fill="#366638"
   d="M45.217,184.675c-0.084,0.008-1.271,1.564-1.307-0.501    c-0.109-6.289,2.828-24.329-1.892-35.686c-3.34-8.037-9.132-7.824-8.826-18.009c0.2-6.658,9.729-7.628,13.54-2.459    c5.36,7.27-1.986,15.679-1.223,25.656C46.695,169.188,45.217,184.675,45.217,184.675"
   id="path212" />
		<path
   clip-path="url(#SVGID_4_)"
   fill="#366638"
   d="M45.217,184.675c-0.084,0.008-1.271,1.564-1.307-0.501    c-0.109-6.289,2.828-24.329-1.892-35.686c-3.34-8.037-9.132-7.824-8.826-18.009c0.2-6.658,9.729-7.628,13.54-2.459    c5.36,7.27-1.986,15.679-1.223,25.656C46.695,169.188,45.217,184.675,45.217,184.675"
   id="path214" />
		<path
   clip-path="url(#SVGID_4_)"
   fill="#366638"
   d="M64.778,155.162c-1.283-5.342-6.942-5.539-9.526-3.33    c-4.441,3.792-5.272,12.485-6.012,17.758c-0.335,2.381-3.573,10.928-4.231,14.335c-0.801,4.135,0.994,2.96,0.994,2.96    s2.589-11.746,8.139-16.37C59.691,165.89,66.442,162.098,64.778,155.162"
   id="path216" />
		<path
   clip-path="url(#SVGID_4_)"
   fill="#366638"
   d="M64.778,155.162c-1.283-5.342-6.942-5.539-9.526-3.33    c-4.441,3.792-5.272,12.485-6.012,17.758c-0.335,2.381-3.573,10.928-4.231,14.335c-0.801,4.135,0.994,2.96,0.994,2.96    s2.589-11.746,8.139-16.37C59.691,165.89,66.442,162.098,64.778,155.162"
   id="path218" />
		<path
   clip-path="url(#SVGID_4_)"
   fill="#366638"
   d="M35.83,167.924c-5.434-2.671-12.763-0.555-12.579,3.977    c0.185,4.532,7.999,7.599,11.56,8.786c5.551,1.851,9.989,5.458,10.174,10.545c0.185,5.087-1.016,14.426-1.11,17.479    c-0.091,3.052,0.555,8.693,0.555,8.693c0.37,0.476,1.397,0.478,1.653-0.011c0,0-1.744-7.388-0.544-13.49    c1.204-6.105,1.574-16.094,0.186-21.644C44.339,176.712,41.472,170.699,35.83,167.924"
   id="path220" />
		<path
   clip-path="url(#SVGID_4_)"
   fill="#366638"
   d="M35.83,167.924c-5.434-2.671-12.763-0.555-12.579,3.977    c0.185,4.532,7.999,7.599,11.56,8.786c5.551,1.851,9.989,5.458,10.174,10.545c0.185,5.087-1.016,14.426-1.11,17.479    c-0.091,3.052,0.555,8.693,0.555,8.693c0.37,0.476,1.397,0.478,1.653-0.011c0,0-1.744-7.388-0.544-13.49    c1.204-6.105,1.574-16.094,0.186-21.644C44.339,176.712,41.472,170.699,35.83,167.924"
   id="path222" />
		<path
   clip-path="url(#SVGID_4_)"
   fill="#DBDA1F"
   d="M312.396,240.425c-8.729,0-17.896-2.472-26.96-7.318    c-4.704-2.516-6.479-8.37-3.963-13.074c2.516-4.705,8.37-6.48,13.074-3.963c12.252,6.552,28.463,7.627,34.374-3.28    c3.938-7.265-0.535-15.816-11.397-21.782c-4.676-2.569-6.384-8.442-3.816-13.118c2.568-4.675,8.442-6.384,13.119-3.816    c23.854,13.104,26.612,34.027,19.08,47.923c-4.782,8.824-13.648,15.192-24.322,17.472    C318.594,240.107,315.522,240.425,312.396,240.425"
   id="path224" />
		<path
   clip-path="url(#SVGID_4_)"
   fill="#A0BE36"
   d="M331.818,174.257l-12.992-8.947c-5.576-3.844-13.22-2.438-17.066,3.138    c-3.835,5.584-2.432,13.223,3.155,17.066l12.73,8.774"
   id="path226" />
		<path
   clip-path="url(#SVGID_4_)"
   fill="#222320"
   d="M282.307,213.163c-0.188,1.832-1.826,3.169-3.661,2.981    c-1.838-0.186-3.172-1.826-2.985-3.661l2.257-22.096c0.188-1.833,1.826-3.17,3.664-2.983c1.835,0.188,3.169,1.828,2.981,3.662    L282.307,213.163z"
   id="path228" />
		<path
   clip-path="url(#SVGID_4_)"
   fill="#23839D"
   d="M274.603,196.956l-3.026,29.649c-0.336,3.279,2.054,6.213,5.334,6.547    c3.277,0.334,6.207-2.054,6.543-5.334l3.027-29.649L274.603,196.956z M281.237,227.242c-0.208,2.034-2.028,3.517-4.065,3.308    c-2.031-0.208-3.52-2.027-3.312-4.062l0.074-0.734c0.009-0.067,0.031-0.125,0.04-0.193l7.337,0.75    c-0.006,0.068,0.005,0.128,0,0.196L281.237,227.242z"
   id="path230" />
		<path
   clip-path="url(#SVGID_4_)"
   fill="#222320"
   d="M290.304,165.99l-1.658,16.23c-0.112,1.101-1.096,1.9-2.196,1.789    c-1.099-0.114-1.9-1.095-1.787-2.196l1.855-18.153c-0.782-0.273-1.591-0.486-2.453-0.575c-0.858-0.088-1.697-0.042-2.515,0.067    l-1.854,18.155c-0.114,1.1-1.096,1.9-2.196,1.787c-1.101-0.112-1.9-1.095-1.789-2.194l1.658-16.23    c-2.72,1.687-4.68,4.537-5.032,7.97l-0.629,6.176c-0.601,5.878,3.679,11.128,9.553,11.728c5.878,0.6,11.129-3.677,11.729-9.554    l0.632-6.177C293.971,171.383,292.625,168.195,290.304,165.99"
   id="path232" />
		<path
   clip-path="url(#SVGID_4_)"
   fill="#2F302C"
   d="M288.646,182.22c-0.111,1.101-1.096,1.9-2.196,1.789    c-1.099-0.114-1.9-1.095-1.787-2.196l0.879-8.603l-4.967-0.508l-0.879,8.605c-0.114,1.1-1.096,1.9-2.196,1.788    c-1.101-0.113-1.9-1.096-1.789-2.195l0.879-8.604l-4.082-0.417c-0.046,0.258-0.143,0.495-0.171,0.761l-0.629,6.176    c-0.601,5.878,3.679,11.128,9.553,11.728c5.878,0.6,11.129-3.677,11.729-9.554l0.632-6.177c0.025-0.266-0.021-0.517-0.015-0.781    l-4.082-0.415L288.646,182.22z"
   id="path234" />
		<path
   clip-path="url(#SVGID_4_)"
   fill="#DBDA1F"
   d="M281.334,222.784c1.985,1.346,2.501,4.048,1.155,6.031    c-1.349,1.985-4.046,2.501-6.031,1.156l-12.637-8.579c-1.983-1.345-2.501-4.046-1.152-6.031c1.343-1.983,4.045-2.498,6.028-1.155    L281.334,222.784z"
   id="path236" />
		<path
   clip-path="url(#SVGID_4_)"
   fill="#DBDA1F"
   d="M287.354,217.766c1.627,1.758,1.521,4.506-0.244,6.136    c-1.759,1.624-4.507,1.517-6.134-0.244l-10.364-11.215c-1.624-1.761-1.516-4.506,0.242-6.134c1.761-1.624,4.509-1.519,6.137,0.243    L287.354,217.766z"
   id="path238" />
		<path
   clip-path="url(#SVGID_4_)"
   fill="#DBDA1F"
   d="M293.632,220.284c0.544,2.336-0.907,4.671-3.243,5.214    c-2.335,0.55-4.668-0.904-5.211-3.24l-3.477-14.864c-0.55-2.339,0.904-4.674,3.24-5.217c2.335-0.547,4.668,0.904,5.215,3.237    L293.632,220.284z"
   id="path240" />
		<path
   clip-path="url(#SVGID_4_)"
   fill="#DBDA1F"
   d="M283.701,224.506c2.324-0.589,4.686,0.819,5.274,3.146    c0.586,2.324-0.825,4.685-3.146,5.271l-14.805,3.738c-2.327,0.588-4.686-0.819-5.274-3.142c-0.586-2.327,0.822-4.688,3.149-5.277    L283.701,224.506z"
   id="path242" />
		<path
   clip-path="url(#SVGID_4_)"
   fill="#68A741"
   d="M19.438,159.492c1.232-1.848,0.734-4.346-1.112-5.579    c-1.846-1.232-4.342-0.733-5.576,1.115l-7.852,11.767c-1.231,1.846-0.737,4.342,1.113,5.574c1.846,1.233,4.344,0.735,5.575-1.111    L19.438,159.492z"
   id="path244" />
		<path
   clip-path="url(#SVGID_4_)"
   fill="#68A741"
   d="M26.354,161.7c0.785-2.077-0.268-4.398-2.349-5.181    c-2.075-0.782-4.396,0.271-5.178,2.35l-4.982,13.235c-0.781,2.079,0.27,4.398,2.348,5.18c2.078,0.779,4.397-0.269,5.18-2.347    L26.354,161.7z"
   id="path246" />
		<path
   clip-path="url(#SVGID_4_)"
   fill="#68A741"
   d="M30.863,157.347c-0.347-2.193-2.404-3.69-4.6-3.343    c-2.196,0.344-3.69,2.406-3.344,4.597l2.203,13.97c0.344,2.196,2.404,3.694,4.6,3.347c2.193-0.347,3.69-2.406,3.344-4.6    L30.863,157.347z"
   id="path248" />
		<path
   clip-path="url(#SVGID_4_)"
   fill="#68A741"
   d="M20.869,157.19c2.199-0.307,3.735-2.338,3.428-4.541    c-0.307-2.195-2.342-3.733-4.539-3.427l-14.007,1.957c-2.201,0.307-3.735,2.337-3.427,4.536c0.305,2.201,2.338,3.737,4.54,3.43    L20.869,157.19z"
   id="path250" />
		<path
   clip-path="url(#SVGID_4_)"
   fill="#68A741"
   d="M355.349,155.76c-1.005,1.98-0.214,4.401,1.77,5.405    c1.979,1.004,4.398,0.211,5.402-1.769l6.394-12.617c1.006-1.982,0.215-4.401-1.765-5.404c-1.983-1.006-4.401-0.212-5.405,1.768    L355.349,155.76z"
   id="path252" />
		<path
   clip-path="url(#SVGID_4_)"
   fill="#68A741"
   d="M348.22,148.943c-0.535,2.153,0.787,4.333,2.95,4.863    c2.153,0.53,4.332-0.792,4.861-2.948l3.371-13.735c0.526-2.157-0.794-4.335-2.95-4.864c-2.156-0.527-4.335,0.79-4.864,2.948    L348.22,148.943z"
   id="path254" />
		<path
   clip-path="url(#SVGID_4_)"
   fill="#68A741"
   d="M354.202,158.215c-2.147,0.566-3.431,2.765-2.862,4.916    c0.566,2.145,2.769,3.428,4.913,2.862l13.673-3.611c2.153-0.565,3.431-2.765,2.864-4.911c-0.563-2.148-2.765-3.431-4.916-2.866    L354.202,158.215z"
   id="path256" />
		<path
   clip-path="url(#SVGID_4_)"
   fill="#ECD8B8"
   d="M145.825,80.59c0-22.796,18.48-41.278,41.276-41.278    c22.799,0,41.279,18.482,41.279,41.278"
   id="path258" />
		<g
   opacity="0.21"
   clip-path="url(#SVGID_4_)"
   id="g270">
			<g
   id="g268">
				<defs
   id="defs261">
					<rect
   id="SVGID_5_"
   x="116.406"
   y="81.711"
   width="140.951"
   height="86.487" />
				</defs>
				<clipPath
   id="SVGID_6_">
					<use
   xlink:href="#SVGID_5_"
   overflow="visible"
   id="use263" />
				</clipPath>
				<path
   clip-path="url(#SVGID_6_)"
   fill="#364B32"
   d="M241.244,83.927h-54.143h-0.441h-54.141c-4.742,0-13.897-4.984-16.113,0      c3.883,17.938,6.501,37.022,6.501,56.584c0,11.242,1.092,28.261,23.421,27.672h40.332h0.441h45.293      c18.691,0,17.788-16.612,17.598-27.851c-0.364-21.468,3.479-38.467,7.365-56.405C255.141,78.943,245.986,83.927,241.244,83.927"
   id="path266" />
			</g>
		</g>
		<polygon
   clip-path="url(#SVGID_4_)"
   fill="#F6E3BC"
   points="118.623,79.225 152.712,73.27 221.246,73.27 255.582,79.225     220.547,81.888 186.635,84.771 142.955,81.888   "
   id="polygon272" />
		<path
   clip-path="url(#SVGID_4_)"
   fill="#F8EBD4"
   d="M255.582,79.225c-0.782-0.182-19.396-4.39-33.6-1.871    c-22.264,3.951-47.515,3.951-69.762,0c-14.204-2.519-32.812,1.689-33.597,1.871c-1.861,0.422-3.022,2.276-2.595,4.133    c0.427,1.858,2.282,3.03,4.137,2.596c0.182-0.038,18.019-4.071,30.852-1.796c23.018,4.082,49.133,4.085,72.171,0    c12.83-2.275,30.673,1.758,30.849,1.796c1.857,0.434,3.713-0.738,4.14-2.596C258.603,81.5,257.442,79.646,255.582,79.225"
   id="path274" />
		<path
   clip-path="url(#SVGID_4_)"
   fill="#CA4E22"
   d="M34.374,69.467c0,3.826-3.104,6.93-6.932,6.93    c-3.827,0-6.931-3.104-6.931-6.93c0-3.829,3.104-6.933,6.931-6.933C31.27,62.534,34.374,65.638,34.374,69.467"
   id="path276" />
		<path
   clip-path="url(#SVGID_4_)"
   fill="#CA4E22"
   d="M34.374,85.489c0,3.828-3.104,6.932-6.932,6.932    c-3.827,0-6.931-3.104-6.931-6.932s3.104-6.931,6.931-6.931C31.27,78.558,34.374,81.661,34.374,85.489"
   id="path278" />
		<path
   clip-path="url(#SVGID_4_)"
   fill="#CA4E22"
   d="M34.374,102.551c0,3.828-3.104,6.932-6.932,6.932    c-3.827,0-6.931-3.104-6.931-6.932s3.104-6.932,6.931-6.932C31.27,95.619,34.374,98.723,34.374,102.551"
   id="path280" />
		<path
   clip-path="url(#SVGID_4_)"
   fill="#CA4E22"
   d="M34.374,119.644c0,3.828-3.104,6.93-6.932,6.93    c-3.827,0-6.931-3.102-6.931-6.93c0-3.829,3.104-6.933,6.931-6.933C31.27,112.711,34.374,115.815,34.374,119.644"
   id="path282" />
		<path
   clip-path="url(#SVGID_4_)"
   fill="#CA4E22"
   d="M16.986,119.644c0,3.828-3.104,6.93-6.933,6.93c-3.826,0-6.93-3.102-6.93-6.93    c0-3.829,3.104-6.933,6.93-6.933C13.882,112.711,16.986,115.815,16.986,119.644"
   id="path284" />
		<path
   clip-path="url(#SVGID_4_)"
   fill="#CA4E22"
   d="M16.986,103.747c0,3.829-3.104,6.933-6.933,6.933    c-3.826,0-6.93-3.104-6.93-6.933c0-3.826,3.104-6.93,6.93-6.93C13.882,96.817,16.986,99.921,16.986,103.747"
   id="path286" />
		<path
   clip-path="url(#SVGID_4_)"
   fill="#CA4E22"
   d="M16.986,85.884c0,3.829-3.104,6.932-6.933,6.932    c-3.826,0-6.93-3.103-6.93-6.932c0-3.828,3.104-6.93,6.93-6.93C13.882,78.954,16.986,82.056,16.986,85.884"
   id="path288" />
		<path
   clip-path="url(#SVGID_4_)"
   fill="#CA4E22"
   d="M16.986,69.467c0,3.826-3.104,6.93-6.933,6.93c-3.826,0-6.93-3.104-6.93-6.93    c0-3.829,3.104-6.933,6.93-6.933C13.882,62.534,16.986,65.638,16.986,69.467"
   id="path290" />
		<path
   clip-path="url(#SVGID_4_)"
   fill="#CA4E22"
   d="M25.768,133.035c0,3.827-3.104,6.93-6.93,6.93    c-3.829,0-6.933-3.103-6.933-6.93c0-3.829,3.104-6.933,6.933-6.933C22.664,126.102,25.768,129.206,25.768,133.035"
   id="path292" />
		<path
   clip-path="url(#SVGID_4_)"
   fill="#838381"
   d="M353.895,147.939l0.742-5.747c0.734-5.692,5.958-9.72,11.65-8.987    c5.686,0.731,9.721,5.955,8.986,11.647l-0.742,5.749c-0.734,5.688-5.96,9.722-11.644,8.988    C357.194,158.855,353.161,153.629,353.895,147.939 M359.744,142.851l-0.74,5.748c-0.369,2.875,1.664,5.51,4.54,5.88    c2.874,0.372,5.511-1.661,5.884-4.537l0.739-5.747c0.37-2.876-1.664-5.514-4.537-5.886    C362.754,137.939,360.116,139.976,359.744,142.851"
   id="path294" />
		<path
   clip-path="url(#SVGID_4_)"
   fill="#8A8B8A"
   d="M365.621,130.955l39.535,5.095l-2.601,20.436    c-1.274,9.872-10.31,16.841-20.179,15.569l-3.854-0.498c-9.871-1.271-16.844-10.304-15.572-20.176L365.621,130.955z"
   id="path296" />
		<polygon
   clip-path="url(#SVGID_4_)"
   fill="#989898"
   points="399.076,112.879 408.22,114.058 405.156,136.05 365.621,130.956   "
   id="polygon298" />
		<path
   clip-path="url(#SVGID_4_)"
   fill="#68A741"
   d="M343.838,146.044c-2.085,0.762-3.157,3.072-2.396,5.158    c0.764,2.088,3.076,3.157,5.162,2.395l13.279-4.862c2.089-0.761,3.158-3.072,2.395-5.157c-0.761-2.086-3.074-3.157-5.156-2.394    L343.838,146.044z"
   id="path300" />
		<path
   clip-path="url(#SVGID_4_)"
   fill="#EBEBEB"
   d="M403.262,89.095v6.251c-4.177,0-7.559,3.385-7.559,7.56    c0,4.175,3.382,7.561,7.559,7.561v-6.25c4.176,0,7.562-3.386,7.562-7.56C410.823,92.482,407.438,89.095,403.262,89.095"
   id="path302" />
		<path
   clip-path="url(#SVGID_4_)"
   fill="#EBEBEB"
   d="M400.841,90.487v-3.462c2.315,0,4.19-1.878,4.19-4.193    c0-2.313-1.875-4.191-4.19-4.191v3.465c-2.313,0-4.19,1.875-4.19,4.191C396.65,88.609,398.527,90.487,400.841,90.487"
   id="path304" />
		<path
   clip-path="url(#SVGID_4_)"
   fill="#CA4E22"
   d="M79.08,211.974c-0.948,0.546-1.945,0.736-3.772,0.736H72.65v-16.726h2.658    c1.804,0,2.538,0.141,3.511,0.687c1.163,0.641,1.899,2.04,1.899,3.606c0,1.471-0.523,2.563-1.732,3.56    c1.542,0.877,2.231,2.11,2.231,3.985C81.217,209.602,80.362,211.239,79.08,211.974 M75.498,198.45v4.2h0.096    c1.518,0,2.23-0.712,2.23-2.158C77.824,199.091,77.158,198.498,75.498,198.45 M77.158,205.498c-0.449-0.262-0.735-0.333-1.66-0.38    v5.076c1.78-0.094,2.729-0.972,2.729-2.585C78.227,206.706,77.799,205.876,77.158,205.498"
   id="path306" />
		<rect
   x="82.903"
   y="195.983"
   clip-path="url(#SVGID_4_)"
   fill="#CA4E22"
   width="2.942"
   height="16.726"
   id="rect308" />
		<polygon
   clip-path="url(#SVGID_4_)"
   fill="#CA4E22"
   points="88.029,212.709 88.029,195.983 94.198,195.983 94.198,198.71     90.948,198.71 90.948,202.34 94.032,202.34 94.032,205.046 90.948,205.046 90.948,210.005 94.316,210.005 94.316,212.709   "
   id="polygon310" />
		<polygon
   clip-path="url(#SVGID_4_)"
   fill="#CA4E22"
   points="102.102,212.709 98.708,203.48 98.708,212.709 95.933,212.709     95.933,195.983 98.329,195.983 101.65,205.095 101.65,195.983 104.45,195.983 104.45,212.709   "
   id="polygon312" />
		<polygon
   clip-path="url(#SVGID_4_)"
   fill="#CA4E22"
   points="116.579,212.709 114.086,212.709 110.551,195.983 113.47,195.983     115.321,206.422 117.17,195.983 120.113,195.983   "
   id="polygon314" />
		<rect
   x="121.112"
   y="195.983"
   clip-path="url(#SVGID_4_)"
   fill="#CA4E22"
   width="2.942"
   height="16.726"
   id="rect316" />
		<polygon
   clip-path="url(#SVGID_4_)"
   fill="#CA4E22"
   points="131.079,212.709 128.585,212.709 125.051,195.983 127.97,195.983     129.821,206.422 131.67,195.983 134.613,195.983   "
   id="polygon318" />
		<path
   clip-path="url(#SVGID_4_)"
   fill="#CA4E22"
   d="M141.258,212.709l-2.941-5.741v5.741h-2.847v-16.726h1.945    c2.064,0,3.013,0.166,4.129,0.735c1.566,0.783,2.538,2.681,2.538,4.982c0,1.518-0.451,2.966-1.233,3.963    c-0.428,0.546-0.689,0.807-1.519,1.353l3.179,5.693H141.258z M140.048,199.043c-0.451-0.308-0.782-0.403-1.707-0.426v6.334h0.071    c1.779,0,2.657-1.092,2.657-3.322C141.069,200.443,140.714,199.518,140.048,199.043"
   id="path320" />
		<polygon
   clip-path="url(#SVGID_4_)"
   fill="#CA4E22"
   points="145.58,212.709 145.58,195.983 151.749,195.983 151.749,198.71     148.499,198.71 148.499,202.34 151.583,202.34 151.583,205.046 148.499,205.046 148.499,210.005 151.867,210.005 151.867,212.709       "
   id="polygon322" />
		<polygon
   clip-path="url(#SVGID_4_)"
   fill="#CA4E22"
   points="158.75,212.709 158.75,195.983 164.918,195.983 164.918,198.71     161.668,198.71 161.668,202.34 164.753,202.34 164.753,205.046 161.668,205.046 161.668,210.005 165.039,210.005 165.039,212.709       "
   id="polygon324" />
		<polygon
   clip-path="url(#SVGID_4_)"
   fill="#CA4E22"
   points="172.822,212.709 169.429,203.48 169.429,212.709 166.654,212.709     166.654,195.983 169.05,195.983 172.371,205.095 172.371,195.983 175.171,195.983 175.171,212.709   "
   id="polygon326" />
		<path
   clip-path="url(#SVGID_4_)"
   fill="#CA4E22"
   d="M179.017,212.995c-0.782,0-1.636-0.143-2.254-0.403v-2.871    c0.783,0.285,1.424,0.426,2.041,0.426c1.115,0,1.827-0.569,1.827-1.471c0-0.545-0.238-1.21-0.76-2.135l-0.332-0.594l-1.02-1.779    l-0.427-0.759c-0.926-1.637-1.329-2.942-1.329-4.175c0-2.183,1.4-3.535,3.654-3.535c0.735,0,1.519,0.118,2.349,0.356v2.823    c-0.712-0.308-1.233-0.428-1.779-0.428c-0.855,0-1.353,0.428-1.353,1.163c0,0.498,0.119,0.831,0.688,1.803    c0.048,0.071,0.095,0.143,0.119,0.166l1.328,2.373c0.711,1.21,0.807,1.376,1.115,2.135c0.475,1.045,0.666,1.851,0.666,2.706    C183.55,211.333,181.746,212.995,179.017,212.995"
   id="path328" />
		<polygon
   clip-path="url(#SVGID_4_)"
   fill="#CA4E22"
   points="185.094,212.709 185.094,195.983 191.262,195.983 191.262,198.71     188.012,198.71 188.012,202.34 191.097,202.34 191.097,205.046 188.012,205.046 188.012,210.005 191.381,210.005 191.381,212.709       "
   id="polygon330" />
		<polygon
   clip-path="url(#SVGID_4_)"
   fill="#CA4E22"
   points="201.347,212.709 201.347,202.982 198.714,209.412 198.405,209.412     195.772,202.982 195.772,212.709 192.995,212.709 192.995,195.983 195.606,195.983 198.573,203.742 201.514,195.983     204.148,195.983 204.148,212.709   "
   id="polygon332" />
		<path
   clip-path="url(#SVGID_4_)"
   fill="#CA4E22"
   d="M212.597,211.974c-0.949,0.546-1.945,0.736-3.773,0.736h-2.657v-16.726h2.657    c1.804,0,2.54,0.141,3.512,0.687c1.163,0.641,1.898,2.04,1.898,3.606c0,1.471-0.522,2.563-1.732,3.56    c1.543,0.877,2.23,2.11,2.23,3.985C214.732,209.602,213.878,211.239,212.597,211.974 M209.014,198.45v4.2h0.095    c1.519,0,2.231-0.712,2.231-2.158C211.34,199.091,210.675,198.498,209.014,198.45 M210.675,205.498    c-0.451-0.262-0.736-0.333-1.661-0.38v5.076c1.779-0.094,2.728-0.972,2.728-2.585    C211.742,206.706,211.316,205.876,210.675,205.498"
   id="path334" />
		<polygon
   clip-path="url(#SVGID_4_)"
   fill="#CA4E22"
   points="216.349,212.709 216.349,195.983 219.268,195.983 219.268,210.005     222.638,210.005 222.638,212.709   "
   id="polygon336" />
		<polygon
   clip-path="url(#SVGID_4_)"
   fill="#CA4E22"
   points="223.753,212.709 223.753,195.983 229.922,195.983 229.922,198.71     226.672,198.71 226.672,202.34 229.756,202.34 229.756,205.046 226.672,205.046 226.672,210.005 230.041,210.005 230.041,212.709       "
   id="polygon338" />
		<polygon
   clip-path="url(#SVGID_4_)"
   fill="#CA4E22"
   points="233.364,215.058 231.68,215.058 231.845,209.126 234.883,209.126     234.883,209.555   "
   id="polygon340" />
		<path
   clip-path="url(#SVGID_4_)"
   fill="#CA4E22"
   d="M106.038,243.91h-0.067l-1.244,1.679c0.436-0.067,0.638-0.101,1.074-0.101    c1.68,0,2.822,1.008,2.822,2.519c0,1.813-1.578,3.054-3.896,3.054c-1.107,0-2.114-0.199-3.358-0.703l0.605-1.343l0.234,0.099    c0.873,0.337,1.31,0.404,1.948,0.404c1.176,0,1.882-0.503,1.882-1.376c0-0.808-0.639-1.344-1.613-1.344    c-0.436,0-0.773,0.1-1.309,0.269l-0.571-0.637l2.014-2.722c-3.19-0.939-4.734-4.902-4.734-12.021    c0-8.192,2.082-12.256,6.213-12.256c1.511,0,2.785,0.639,4.096,1.947l-1.982,3.124c-0.638-0.638-1.175-0.906-1.78-0.906    c-0.503,0-0.973,0.233-1.276,0.638c-0.671,0.939-1.007,3.458-1.007,7.454c0,2.819,0.169,4.969,0.571,6.446    c0.269,1.042,0.874,1.646,1.712,1.646c0.605,0,1.142-0.302,1.78-0.939l1.982,3.121C108.823,243.306,107.549,243.91,106.038,243.91    "
   id="path342" />
		<path
   clip-path="url(#SVGID_4_)"
   fill="#CA4E22"
   d="M119.807,243.507l-0.469-2.451h-4.333l-0.469,2.451h-4.163l5.135-23.672h3.326    l5.104,23.672H119.807z M117.154,229.135l-1.646,9.032h3.326L117.154,229.135z"
   id="path344" />
		<path
   clip-path="url(#SVGID_4_)"
   fill="#CA4E22"
   d="M135.192,243.91c-1.109,0-2.318-0.202-3.191-0.57v-4.063    c1.108,0.404,2.015,0.604,2.887,0.604c1.578,0,2.586-0.806,2.586-2.082c0-0.771-0.335-1.713-1.075-3.021l-0.469-0.84l-1.443-2.519    l-0.606-1.074c-1.309-2.316-1.88-4.163-1.88-5.909c0-3.088,1.982-5.003,5.171-5.003c1.041,0,2.149,0.167,3.325,0.504v3.997    c-1.007-0.437-1.747-0.605-2.52-0.605c-1.207,0-1.912,0.605-1.912,1.645c0,0.706,0.167,1.177,0.972,2.553    c0.068,0.101,0.135,0.202,0.17,0.234l1.88,3.358c1.007,1.713,1.141,1.947,1.578,3.022c0.67,1.478,0.94,2.619,0.94,3.828    C141.605,241.56,139.052,243.91,135.192,243.91"
   id="path346" />
		<polygon
   clip-path="url(#SVGID_4_)"
   fill="#CA4E22"
   points="143.79,243.507 143.79,219.835 152.52,219.835 152.52,223.695     147.921,223.695 147.921,228.833 152.286,228.833 152.286,232.662 147.921,232.662 147.921,239.68 152.69,239.68 152.69,243.507       "
   id="polygon348" />
		<path
   clip-path="url(#SVGID_4_)"
   fill="#CA4E22"
   d="M168.208,243.91c-4.131,0-6.213-4.063-6.213-12.223    c0-8.192,2.082-12.256,6.213-12.256c1.511,0,2.785,0.639,4.096,1.947l-1.982,3.124c-0.638-0.638-1.174-0.906-1.78-0.906    c-0.503,0-0.972,0.233-1.276,0.638c-0.671,0.939-1.008,3.458-1.008,7.454c0,2.819,0.17,4.969,0.572,6.446    c0.269,1.042,0.874,1.646,1.712,1.646c0.606,0,1.142-0.302,1.78-0.939l1.982,3.121C170.993,243.306,169.719,243.91,168.208,243.91    "
   id="path350" />
		<path
   clip-path="url(#SVGID_4_)"
   fill="#CA4E22"
   d="M180.264,243.91c-3.894,0-6.011-2.251-6.011-6.379v-17.696h4.132v16.285    c0,0.737,0.034,1.276,0.067,1.712c0.1,1.21,0.772,1.947,1.812,1.947c0.706,0,1.311-0.369,1.578-0.974    c0.27-0.537,0.304-1.075,0.304-2.686v-16.285h4.163v17.696C186.309,241.659,184.16,243.91,180.264,243.91"
   id="path352" />
		<polygon
   clip-path="url(#SVGID_4_)"
   fill="#CA4E22"
   points="189.268,243.507 189.268,219.835 193.396,219.835 193.396,239.68     198.166,239.68 198.166,243.507   "
   id="polygon354" />
		<polygon
   clip-path="url(#SVGID_4_)"
   fill="#CA4E22"
   points="204.009,223.694 204.009,243.507 199.846,243.507 199.846,223.694     197.193,223.694 197.193,219.835 206.697,219.835 206.697,223.694   "
   id="polygon356" />
		<rect
   x="208.545"
   y="219.835"
   clip-path="url(#SVGID_4_)"
   fill="#CA4E22"
   width="4.164"
   height="23.672"
   id="rect358" />
		<polygon
   clip-path="url(#SVGID_4_)"
   fill="#CA4E22"
   points="222.65,243.507 219.124,243.507 214.119,219.835 218.25,219.835     220.87,234.608 223.488,219.835 227.651,219.835   "
   id="polygon360" />
		<polygon
   clip-path="url(#SVGID_4_)"
   fill="#CA4E22"
   points="228.865,243.507 228.865,219.835 237.595,219.835 237.595,223.695     232.996,223.695 232.996,228.833 237.361,228.833 237.361,232.662 232.996,232.662 232.996,239.68 237.762,239.68     237.762,243.507   "
   id="polygon362" />
		<path
   clip-path="url(#SVGID_4_)"
   fill="#CA4E22"
   d="M251.132,236.724h-2.686l-0.941-16.889h4.567L251.132,236.724z     M247.773,238.436h4.028v5.071h-4.028V238.436z"
   id="path364" />
		<path
   clip-path="url(#SVGID_4_)"
   fill="#EAB91C"
   d="M348.694,72.964c-9.835-2.5,0.052,18.251,15.122,16.638    C363.816,89.602,358.528,75.464,348.694,72.964"
   id="path366" />
		<path
   clip-path="url(#SVGID_4_)"
   fill="#EAB91C"
   d="M349.801,72.317c5.887,1.497,10.144,7.162,12.613,11.47    c-1.458-4.762-4.413-11.436-9.964-14.218c-2.981-1.495-4.421-0.079-4.472,2.553C348.487,72.079,349.093,72.137,349.801,72.317"
   id="path368" />
		<path
   clip-path="url(#SVGID_4_)"
   fill="#EAB91C"
   d="M363.527,89.042c0.045,0.005,0.089,0.011,0.134,0.016    c0,0-0.002-0.008-0.003-0.02C363.614,89.04,363.57,89.041,363.527,89.042"
   id="path370" />
		<path
   clip-path="url(#SVGID_4_)"
   fill="#20201E"
   d="M375.403,87.379c0,0.454-0.367,0.821-0.821,0.821    c-0.453,0-0.821-0.367-0.821-0.821s0.368-0.821,0.821-0.821C375.036,86.559,375.403,86.925,375.403,87.379"
   id="path372" />
		<path
   clip-path="url(#SVGID_4_)"
   fill="#20201E"
   d="M372.084,93.669c0,0,0.784,1.667,4.331,1.456    c2.035-1.322,3.383-3.613,3.383-6.221c0-4.094-3.32-7.414-7.414-7.414c-4.095,0-7.414,3.32-7.414,7.414    c0,4.095,3.319,7.414,7.414,7.414c0.801,0,1.57-0.128,2.293-0.363C373.729,95.684,372.705,95.054,372.084,93.669 M374.582,83.963    c1.887,0,3.416,1.529,3.416,3.416s-1.529,3.416-3.416,3.416s-3.416-1.529-3.416-3.416S372.695,83.963,374.582,83.963"
   id="path374" />
		<path
   clip-path="url(#SVGID_4_)"
   fill="#20201E"
   d="M370.587,99.57c0.008-0.154,0.012-0.309,0.012-0.465    c0-4.83-3.835-8.764-8.626-8.925C362.984,93.12,365.305,97.212,370.587,99.57"
   id="path376" />
		<path
   clip-path="url(#SVGID_4_)"
   fill="#EAB91C"
   d="M353.542,95.389c-0.519,1.132-0.81,2.39-0.81,3.716    c0,2.419,0.964,4.609,2.524,6.217l-4.014,5.86l5.371-4.711c1.437,0.987,3.176,1.568,5.052,1.568c0.756,0,1.489-0.095,2.189-0.272    C355.827,104.753,353.961,97.886,353.542,95.389"
   id="path378" />
		<path
   clip-path="url(#SVGID_4_)"
   fill="#EAB91C"
   d="M361.973,90.18c-0.103-0.003-0.204-0.008-0.307-0.008    c-1.512,0-2.934,0.377-4.182,1.039c0.302,2.189,2.035,10.18,11.432,13.11c0.974-1.35,1.58-2.982,1.671-4.751    C365.305,97.212,362.985,93.12,361.973,90.18"
   id="path380" />
		<path
   clip-path="url(#SVGID_4_)"
   fill="#20201E"
   d="M357.484,91.21c-1.73,0.919-3.122,2.39-3.942,4.178    c0.419,2.497,2.285,9.364,10.314,12.379c2.067-0.522,3.849-1.765,5.06-3.447C359.52,101.391,357.786,93.399,357.484,91.21"
   id="path382" />
		<path
   clip-path="url(#SVGID_4_)"
   fill="#20201E"
   d="M371.554,82.516c0,0,0.014-0.008,0.041-0.024    c0.028-0.016,0.069-0.039,0.124-0.07c0.105-0.058,0.26-0.14,0.457-0.239c0.198-0.098,0.439-0.213,0.72-0.337    c0.279-0.123,0.597-0.256,0.949-0.388c0.351-0.135,0.736-0.263,1.146-0.392c0.412-0.122,0.848-0.245,1.306-0.345    c0.456-0.107,0.934-0.187,1.419-0.259c0.488-0.06,0.984-0.113,1.483-0.125c0.124-0.004,0.249-0.011,0.373-0.011    c0.125,0.001,0.249,0.002,0.373,0.003c0.248-0.002,0.495,0.022,0.739,0.033c0.244,0.016,0.485,0.05,0.724,0.073    c0.238,0.036,0.472,0.075,0.701,0.113c0.228,0.051,0.451,0.098,0.669,0.149c0.215,0.061,0.426,0.12,0.63,0.177    c0.202,0.071,0.397,0.139,0.585,0.204c0.189,0.068,0.365,0.149,0.536,0.219c0.173,0.068,0.331,0.149,0.481,0.224    c0.15,0.077,0.296,0.142,0.427,0.216c0.259,0.153,0.489,0.276,0.669,0.394c0.356,0.239,0.561,0.376,0.561,0.376l-0.022,0.033    c0,0-0.211-0.124-0.579-0.34c-0.185-0.107-0.421-0.216-0.685-0.351c-0.133-0.066-0.281-0.123-0.434-0.189    c-0.152-0.065-0.313-0.136-0.486-0.192c-0.173-0.059-0.349-0.128-0.537-0.184c-0.188-0.054-0.383-0.109-0.584-0.165    c-0.203-0.045-0.411-0.091-0.625-0.138c-0.215-0.037-0.436-0.07-0.658-0.106c-0.226-0.025-0.454-0.049-0.686-0.07    c-0.233-0.009-0.468-0.028-0.705-0.029c-0.237,0.003-0.476-0.007-0.716,0.01c-0.119,0.006-0.239,0.012-0.359,0.018    s-0.24,0.021-0.359,0.031c-0.479,0.04-0.955,0.119-1.42,0.204c-0.463,0.097-0.917,0.201-1.349,0.33    c-0.434,0.121-0.845,0.264-1.232,0.404c-0.386,0.147-0.748,0.29-1.075,0.44c-0.328,0.145-0.624,0.29-0.883,0.423    c-0.26,0.132-0.48,0.255-0.661,0.358c-0.18,0.104-0.318,0.188-0.411,0.246c-0.043,0.028-0.077,0.05-0.1,0.065    c-0.023,0.015-0.036,0.023-0.036,0.023L371.554,82.516z"
   id="path384" />
		<path
   clip-path="url(#SVGID_4_)"
   fill="#20201E"
   d="M386.207,83.094c0.325,0.23,0.775,0.152,1.006-0.173    c0.229-0.325,0.152-0.775-0.173-1.005s-0.775-0.153-1.005,0.173C385.805,82.414,385.882,82.864,386.207,83.094"
   id="path386" />
		<path
   clip-path="url(#SVGID_4_)"
   fill="#20201E"
   d="M370.426,82.044c0,0,0.014-0.005,0.041-0.014    c0.025-0.008,0.064-0.022,0.114-0.039c0.103-0.037,0.256-0.093,0.45-0.172c0.195-0.077,0.429-0.179,0.697-0.299    c0.266-0.124,0.566-0.266,0.887-0.435c0.321-0.167,0.664-0.36,1.021-0.574c0.356-0.215,0.726-0.453,1.098-0.714    c0.188-0.129,0.372-0.268,0.561-0.407c0.184-0.145,0.376-0.285,0.557-0.441c0.092-0.076,0.185-0.153,0.276-0.23    c0.092-0.078,0.181-0.159,0.271-0.239c0.184-0.159,0.356-0.329,0.532-0.497c0.178-0.167,0.341-0.347,0.511-0.52    c0.165-0.178,0.324-0.359,0.483-0.539c0.15-0.186,0.306-0.367,0.448-0.553c0.139-0.19,0.285-0.371,0.413-0.561    c0.126-0.19,0.26-0.373,0.374-0.561s0.23-0.371,0.335-0.553c0.1-0.185,0.198-0.365,0.293-0.538    c0.088-0.177,0.169-0.351,0.249-0.516c0.083-0.165,0.146-0.33,0.212-0.484c0.063-0.156,0.13-0.301,0.179-0.442    c0.097-0.283,0.192-0.527,0.253-0.734c0.122-0.413,0.191-0.649,0.191-0.649l0.038,0.009c0,0-0.056,0.241-0.152,0.662    c-0.05,0.211-0.131,0.461-0.213,0.752c-0.041,0.146-0.101,0.296-0.154,0.456c-0.057,0.16-0.11,0.331-0.185,0.502    c-0.071,0.172-0.144,0.352-0.223,0.537c-0.086,0.182-0.174,0.37-0.266,0.564c-0.095,0.192-0.202,0.383-0.307,0.583    c-0.106,0.198-0.23,0.392-0.349,0.594c-0.12,0.201-0.258,0.395-0.389,0.598c-0.136,0.199-0.283,0.393-0.427,0.594    c-0.152,0.193-0.305,0.389-0.463,0.581c-0.165,0.188-0.321,0.383-0.494,0.565c-0.17,0.184-0.34,0.369-0.519,0.543    c-0.088,0.088-0.175,0.178-0.265,0.263c-0.091,0.085-0.182,0.17-0.271,0.255c-0.178,0.171-0.367,0.326-0.548,0.488    c-0.187,0.155-0.369,0.309-0.555,0.455c-0.37,0.291-0.737,0.561-1.094,0.804c-0.356,0.244-0.701,0.465-1.026,0.658    c-0.323,0.196-0.628,0.362-0.898,0.508c-0.273,0.142-0.514,0.264-0.716,0.358c-0.202,0.095-0.362,0.166-0.475,0.213    c-0.058,0.024-0.103,0.042-0.132,0.054c-0.029,0.012-0.045,0.018-0.045,0.018L370.426,82.044z"
   id="path388" />
		<path
   clip-path="url(#SVGID_4_)"
   fill="#20201E"
   d="M381.587,71.521c0.083-0.39-0.166-0.772-0.556-0.855s-0.772,0.166-0.855,0.555    c-0.083,0.39,0.166,0.773,0.556,0.856S381.504,71.912,381.587,71.521"
   id="path390" />
		
		
		
		
		
		
		
		
		
		
		
		
		
		
		
		
		
		
		
		
		
		
		
		
		
		
		
		
		
		
		
		
		
		
		
		
		
		
		
		
		
		
		
		
		
		
		
		
		
		
		
		
		
		
		
		
		
		
		
		
		
		
		
		
		
		
		
		
		
		
		
		
		
		
		
		
		
		
		
		
		
		
	</g>
	
	
	
	
	
	
	
	
	
	
	
	
	
	
	
	
	
	
	
	
	
	
	
	
</g>
</svg>